<svg xmlns="http://www.w3.org/2000/svg" width="931" height="189" viewBox="0 0 931 189" fill="none">
    <path
        d="M0.742334 74.6751C-4.36195 55.1869 18.1006 62.5074 30.142 60.9135C43.1904 62.1852 59.7731 61.4853 72.0522 60.9135C83.3929 57.871 100.301 59.64 112.711 58.4114C126.886 58.4114 141.073 58.4114 155.247 58.4114C168.846 59.1983 184.046 59.1352 197.783 59.037C210.368 57.9342 226.5 58.2 239.067 59.037C250.596 62.4004 265.02 62.9615 273.471 56.5349C269.555 48.2022 258.008 44.4622 255.956 32.7649C254.924 10.7246 275.022 28.9711 275.348 35.267C286.194 41.4535 271.726 67.332 283.48 59.037C300.018 66.679 283.261 44.1438 289.735 34.6415C292.068 24.6988 291.962 5.34379 303.496 9.6205C308.419 17.3607 293.757 43.4764 309.126 38.3946C315.657 31.6753 329.099 27.7013 339.151 28.3862C351.791 22.1854 334.397 43.5002 328.517 43.3988C321.261 50.3196 310.127 53.3685 299.743 57.1604C282.235 66.6571 308.194 62.5712 316.007 67.7943C325.771 69.482 344.533 74.0902 353.538 68.4198C361.282 56.9771 374.281 65.386 384.189 63.4156C378.896 54.009 361.102 58.3145 351.662 54.6583C330.926 47.1163 349.79 42.6882 365.423 45.2754C378.688 46.1881 383.3 55.7573 391.695 61.5391C402.553 61.1256 413.518 60.3011 424.223 55.9093C437.114 50.2746 423.528 38.7562 427.976 23.382C432.236 -3.1033 434.802 30.5224 431.729 35.267C430.704 37.8886 433.47 40.0498 432.98 44.0244C443.481 55.9006 436.482 40.8611 437.359 31.5139C437.837 22.7822 461.77 10.0921 449.869 27.1352C445.89 32.82 456.057 54.7903 463.005 39.0202C469.113 29.885 465.819 14.8949 473.014 7.1184C480.401 -8.04933 492.982 4.28101 479.894 13.9992C471.903 9.95953 472.917 45.6726 476.767 35.267C482.241 26.5647 491.028 21.1696 503.039 19.0034C505.383 17.5953 507.976 16.4337 512.422 17.1268C516.082 23.5472 531.081 4.63694 523.056 19.6289C514.255 26.2763 506.786 30.3297 497.409 35.8925C489.34 39.4931 466.51 45.3505 488.652 49.0286C499.924 51.9335 509.706 56.3328 516.175 64.0411C536.875 75.3807 504.374 73.5967 501.162 68.4198C490.611 64.793 482.512 58.7111 478.018 49.0286C454.849 42.6257 469.903 55.0405 474.89 62.7901C468.317 74.8158 461.496 55.0711 458.001 48.403C453.599 45.4343 453.488 51.4931 455.499 53.4072C452.025 61.7649 447.578 65.2434 445.49 74.0495C434.928 91.1007 448.196 62.2672 444.865 56.5349C435.03 48.3993 436.109 70.1356 430.478 75.3006C426.592 91.1545 407.928 83.2197 420.469 69.0453C430.405 54.0396 401.6 66.7228 404.831 75.3006C394.828 88.7118 415.776 88.4166 424.848 91.5642C435.652 95.0803 453.129 93.4871 461.754 96.5684C473.341 97.6675 489.106 101.419 498.035 96.5684C505.779 90.7123 514.735 82.3015 526.183 82.8069C531.28 81.4633 531.627 84.8692 535.566 84.6835C551.544 89.8784 529.007 90.701 528.06 96.5684C504.507 101.471 539.257 109.768 540.57 100.947C545.935 93.3995 547.216 116.097 562.464 105.326C566.514 106.635 579.353 96.8437 585.608 91.5642C587.257 87.9237 620.362 81.9868 605.625 92.8153C597.643 99.8199 589.491 103.649 576.851 105.951C552.448 111.117 591.246 110.322 594.991 112.832C605.125 115.888 621.22 114.424 635.024 114.709C642.283 112.259 663.108 116.143 666.301 105.951C668.929 105.096 671.071 102.309 673.181 102.824C686.784 99.4921 665.735 119.634 686.317 112.832C699.569 111.906 714.053 112.208 728.228 112.207C742.611 112.207 757.752 112.207 771.389 112.207C789.205 115.36 777.922 97.1814 791.406 93.4408C794.331 83.6044 819.671 81.8279 810.171 96.5684C806.61 104.525 790.17 105.164 789.529 112.207C799.593 110.915 818.683 111.255 825.184 108.453C824.713 105.172 824.281 101.849 824.558 97.8195C827.218 83.9922 831.383 107.266 839.571 103.449C843.84 102.933 845.936 104.591 850.205 104.075C855.889 112.484 868.836 101.43 867.094 107.828C861.316 109.796 870.033 111.512 870.847 109.704C876.385 103.076 883.269 109.832 884.609 102.824C887.29 102.607 892.877 105.227 888.362 106.577C889.696 112.672 911.898 110.989 903.375 117.211C892.404 114.595 876.441 120.194 865.218 115.334C861.232 122.682 847.983 140.629 855.209 119.713C853.468 114.627 851.767 123.424 850.205 119.087C853.908 111.291 836.365 127.688 832.69 117.211C824.978 110.504 809.094 118.188 795.159 115.334C780.775 115.334 765.634 115.334 751.998 115.334C737.614 115.334 722.473 115.334 708.836 115.334C695.735 116.41 680.747 115.603 670.054 119.087C668.889 121.674 666.216 122.755 665.05 125.343C665.451 121.663 671.95 143.616 673.181 134.1C675.007 132.549 675.856 128.592 676.935 127.219C692.815 123.056 681.6 138.389 685.066 142.232C687.834 143.851 692.531 142.691 693.198 140.355C701.013 133.716 704.216 157.324 707.585 140.355C708.278 129.139 721.339 121.375 730.104 125.343C734.001 136.652 713.691 139.319 727.602 149.738C732.961 157.726 722.486 176.489 715.717 159.746C703.4 146.048 723.369 172.932 711.964 174.133C688.333 179.175 720.762 166.729 706.96 157.87C703.382 138.354 694.501 161.193 695.075 169.129C682.324 177.315 695.391 135.063 687.569 151.615C686.942 155.842 686.833 156.853 685.066 159.121C683.974 160.58 681.45 162.04 681.313 163.5C679.829 174.81 682.87 160.783 685.066 167.253C684.296 172.734 674.675 200.518 673.181 181.64C673.734 168.597 679.582 157.16 685.066 151.615C684.204 147.886 684.848 144.038 681.313 147.861C674.877 158.267 669.908 138.878 668.803 140.981C665.716 141.816 658.759 140.811 663.173 137.853C673.899 132.103 659.465 127.33 654.416 130.972C653.803 127.925 653.978 124.157 655.041 122.215C659.853 113.26 635.265 118.8 638.778 124.092C638.232 134.007 665.479 135.957 657.543 139.73C647.92 143.422 644.995 156.897 638.152 160.372C635.949 151.468 654.875 129.854 640.654 140.981C630.417 145.008 624.918 151.21 613.757 155.368C610.424 155.788 609.059 158.177 604.374 157.244C587.025 162.255 603.832 150.205 607.501 148.487C611.278 137.428 631.807 143.327 638.778 137.853C636.496 126.031 620.863 139.836 610.629 135.351C626.816 124.565 602.263 126.295 598.118 117.836C591.487 114.729 560.601 110.62 574.349 124.717C576.116 130.269 594.089 147.412 580.604 144.734C573.814 137.141 569.72 126.093 566.217 115.96C557.346 107.59 540.52 109.221 550.579 126.594C542.632 141.788 536.359 116.696 536.192 109.079C519.343 109.266 515.976 104.787 498.66 105.951C490.115 104.289 468.15 99.1262 466.758 103.449C475.101 109.283 478.292 120.274 487.401 125.343C508.593 135.061 477.129 129.973 474.265 124.092C468.753 116.541 454.634 113.562 454.873 103.449C462.251 97.1133 429.653 97.1427 429.852 101.573C423.336 111.122 423.453 118.765 430.478 129.721C444.787 140.983 434.693 143.403 423.597 137.228C414.657 133.536 406.942 120.231 413.589 110.33C434.431 102.887 420.294 100.357 408.584 100.947C400.785 85.8857 394.485 96.1206 390.444 107.828C371.583 123.94 386.654 83.5244 376.683 93.4408C383.923 86.1047 353.04 84.9549 352.287 94.0663C344.769 107.051 324.933 96.8456 339.777 85.9345C336.618 78.948 319.197 81.7623 309.126 77.8027C298.298 76.5079 287.008 75.8736 272.22 75.3006C257.333 76.0118 246.824 72.3362 231.561 73.424C217.18 73.424 202.036 73.424 188.4 73.424C174.688 73.8907 158.756 72.1373 147.741 75.3006C130.883 73.8913 125.072 79.6055 108.333 77.8027C91.2245 76.1939 84.9818 80.8459 70.1756 80.9303C61.1368 83.6295 41.9269 81.6416 31.3931 84.058C19.5206 83.4124 -0.333568 90.4621 0.742334 74.6751ZM5.74653 70.9219C1.41165 74.814 9.47466 82.0926 12.0018 76.5517C9.28075 81.27 23.6928 79.6568 30.7675 78.4282C11.6515 79.7137 36.7726 72.128 32.6441 77.1772C34.4706 79.5004 48.9766 77.0583 56.414 77.8027C74.204 79.8594 63.251 72.3782 75.8053 75.3006C79.3145 64.3252 75.2611 77.966 86.4392 74.0496C89.6044 72.8911 98.9185 71.6682 105.205 73.424C115.364 70.2614 107.144 63.0747 110.835 64.6667C116.164 66.8122 115.107 74.56 124.596 71.5475C125.272 71.8102 155.034 70.8225 135.856 68.4198C115.539 68.6181 130.532 63.7678 138.983 65.9177C142.511 68.5374 148.429 64.7561 147.115 68.4198C142.211 71.6163 162.415 69.325 163.379 69.0454C164.799 67.9194 181.344 69.8123 187.774 70.2964C195.875 67.2332 209.367 70.207 212.17 69.0454C221.628 67.7355 232.843 72.7816 232.187 68.4198C239.011 67.6579 252.347 70.4359 254.705 67.7943C250.539 60.9254 235.139 66.0047 231.561 64.0412C233.976 59.5762 213.565 63.8716 211.544 62.1646C204.019 64.7468 197.32 61.5635 185.898 62.1646C175.989 60.9098 163.16 63.6583 161.502 62.1646C146.815 61.768 147.916 63.7484 135.856 62.1646C126.998 62.8301 111.016 60.587 109.584 64.0412C107.357 61.7811 89.4918 61.4409 96.4476 65.2922C94.0894 64.0881 91.3496 66.1135 90.8179 64.0412C94.6962 67.5535 77.1439 70.1738 87.0648 67.7943C91.3996 61.0174 68.5492 64.9526 66.4224 65.2922C63.6764 65.0989 60.1297 65.5374 60.1672 67.1688C72.6777 70.2495 46.6559 68.1934 53.2864 67.7943C54.525 62.7282 37.6483 67.5278 32.0186 64.6667C33.3885 71.9534 21.3471 76.0412 19.5081 71.5475C14.2975 70.7243 19.6082 69.7466 21.3847 70.2964C35.4027 71.4236 25.1441 69.8723 25.1378 67.7943C17.0623 59.7951 10.6506 69.9367 11.3763 70.9219C3.83243 64.3458 7.66064 68.3366 5.74653 70.9219ZM37.6483 75.3006C39.331 73.1344 46.9499 74.1434 49.5333 74.6751C48.7451 75.9424 41.1325 74.9328 37.6483 75.3006ZM51.4098 75.3006C53.5679 73.997 60.6051 74.6776 64.5459 74.6751C67.4483 75.9762 54.8565 74.9647 51.4098 75.3006ZM92.6945 67.7943C95.4718 66.5295 101.252 67.6492 103.954 67.1688C112.724 67.5666 94.8088 69.8091 92.6945 67.7943ZM181.519 67.7943C186.148 66.5839 192.916 67.5147 198.408 67.1688C193.779 68.3792 187.011 67.4484 181.519 67.7943ZM262.212 67.7943C260.829 64.1506 257.026 69.0222 261.586 67.7943C247.368 70.9638 267.691 70.364 272.22 70.2964C273.271 68.5456 275.842 70.4834 277.224 70.9219C294.357 71.6776 282.892 68.3873 281.603 65.9177C278.106 67.5798 272.439 68.0301 271.595 68.4198C266.728 67.5028 266.027 61.4696 262.212 67.7943ZM265.339 33.3904C260.254 26.6104 264.163 41.9845 267.841 40.2712C273.89 43.6484 268.054 34.3419 265.339 33.3904ZM294.739 35.267C295.665 35.2464 301.595 23.3996 295.364 25.2586C290.235 33.266 299.074 39.0796 294.739 35.267ZM303.496 69.0454C297.473 66.0747 297.122 72.6884 304.122 70.9219C307.099 73.3371 310.465 68.565 303.496 69.0454ZM324.139 74.0496C322.35 73.825 331.094 76.967 329.768 77.1772C336.386 73.3627 330.375 75.1774 324.139 74.0496ZM327.892 37.1436C323.432 38.9245 309.883 44.2708 311.628 47.152C317.083 46.8161 329.631 39.7839 327.892 37.1436ZM341.028 77.8027C337.694 76.4622 342.263 80.2297 343.53 77.8027C348.959 87.2706 337.175 74.4755 345.406 84.6835C347.702 91.5223 336.474 90.9662 348.534 91.5642C343.597 86.2473 360.548 81.5802 360.419 82.1814C368.932 76.3465 361.499 77.6357 363.547 74.0495C363.884 71.9165 371.812 72.5208 372.93 67.1688C354.301 64.3239 372.267 67.5316 365.423 70.9219C355.026 62.4454 364.676 78.9155 355.415 75.9261C356.928 82.7888 342.896 70.7956 341.028 77.8027ZM351.036 134.1C349.265 121.322 353.282 113.426 356.04 105.951C357.878 100.034 371.091 90.569 371.679 97.194C364.98 101.503 364.109 112.545 361.045 119.713C362.645 129.266 357.73 146.58 351.036 134.1ZM354.164 87.1856C361.843 86.034 353.219 85.2927 354.789 84.0579C349.779 85.1345 352.558 89.3549 354.164 87.1856ZM356.04 125.343C359.332 124.165 357.905 111.345 356.04 117.211C354.747 121.636 353.466 128.261 356.04 125.343ZM366.674 52.1562C367.849 47.3534 358.409 50.1708 359.168 51.5307C361.197 51.759 369.754 53.396 366.674 52.1562ZM369.176 78.4282C366.983 76.3871 367.342 85.4685 370.427 82.8069C375.339 82.1301 369.301 78.7266 369.176 78.4282ZM376.683 72.7985C368.018 74.2478 385.315 78.6972 388.568 77.1772C397.097 67.9882 382.121 69.6652 376.683 72.7985ZM380.436 82.8069C382.65 86.4844 392.405 84.0398 382.938 82.1814C374.443 78.7954 379.61 84.1655 380.436 82.8069ZM385.44 38.3946C386.543 26.788 398.21 40.674 406.708 35.267C416.831 35.3052 421.533 41.7149 426.725 45.9009C428.118 53.8551 409.151 52.083 404.831 49.6541C396.023 48.3017 390.115 43.0967 385.44 38.3946ZM387.317 101.573C394.071 95.8766 381.105 96.9694 384.815 103.449C384.677 111.06 395.094 97.0382 387.317 101.573ZM387.942 91.5642C389.782 89.5282 389.118 101.788 394.197 92.1898C391.092 78.6822 402.581 84.2056 397.325 71.5474C387.948 62.2334 399.004 76.3571 394.823 77.1772C390.706 79.9489 389.448 78.4195 387.942 91.5642ZM407.333 92.1898C403.705 92.6089 415.186 103.913 415.465 95.9429C425.526 94.4022 403.767 93.0449 407.333 92.1898ZM411.712 40.8967C402.178 36.7345 392.311 44.4779 403.58 43.3988C405.903 45.3605 423.156 46.584 411.712 40.8967ZM417.342 119.713C417.799 104.441 410.291 126.201 418.593 127.219C426.748 137.012 419.298 124.593 417.342 119.713ZM431.729 59.037C428.706 61.9957 424.929 70.0243 424.223 75.3006C427.601 71.0839 432.383 64.0605 431.729 59.037ZM444.239 36.5181C439.281 36.4912 446.16 41.7506 444.865 43.3988C448.784 46.3982 445.886 37.158 444.239 36.5181ZM449.244 49.0286C450.802 44.5548 446.556 44.6405 446.741 47.152C445.258 50.6774 452.915 49.6566 449.244 49.0286ZM453.622 75.9261C453.355 69.4638 453.923 60.8916 460.503 64.0411C462.447 69.2887 466.743 73.3296 468.009 78.4282C470.704 84.6516 469.14 92.5182 462.38 87.8111C456.802 85.8957 454.914 79.603 453.622 75.9261ZM459.878 103.449C455.37 103.108 463.246 111.214 464.882 107.828C470.272 107.12 462.737 105.981 459.878 103.449ZM461.129 74.6751C456.244 71.8083 462.002 82.0212 461.129 81.5558C463.407 86.3067 464.114 73.9488 461.129 74.6751ZM493.656 55.2838C480.946 54.8209 500.976 64.1756 505.541 64.6667C516.945 66.4344 498.685 55.3107 493.656 55.2838ZM506.166 99.0705C493.2 101.359 509.898 104.018 514.298 100.322C523.441 94.8557 508.367 97.7482 506.166 99.0705ZM511.171 22.7565C500.135 21.1345 486.665 27.9959 483.022 33.3904C490.69 31.5026 504.947 25.7622 511.171 22.7565ZM541.821 105.951C537.14 106.726 545.02 108.006 542.447 110.33C543.039 111.145 547.368 108.7 541.821 105.951ZM591.238 94.6919C586.822 95.7565 591.642 99.1012 595.616 95.3174C603.717 91.6168 592.729 90.0993 591.238 94.6919ZM611.88 119.087C602.707 119.048 622.574 128.357 624.391 123.466C633.356 114.331 619.531 119.717 611.88 119.087ZM621.263 130.972C622.117 134.984 632.863 125.728 631.271 126.594C626.152 127.557 622.833 127.791 621.263 130.972ZM622.514 145.359C625.318 142.133 614.968 147.175 613.131 148.487C615.586 153.102 623.654 146.047 622.514 145.359ZM638.152 128.47C635.519 124.618 634.093 134.797 639.403 131.598C645.115 131.348 639.83 129.647 638.152 128.47ZM653.165 170.38C652.786 161.662 653.957 154.491 659.42 151.615C661.773 147.23 668.727 138.946 670.679 147.236C668.354 146.185 665.072 156.515 663.799 161.623C663.228 167.027 657.105 176.809 653.165 170.38ZM712.59 138.479C710.256 136.475 712.105 144.853 710.713 144.734C706.485 158.682 713.928 146.128 715.717 150.989C714.271 155.397 718.179 155.89 719.47 156.619C720.337 151.551 727.298 154.292 717.594 150.364C721.446 148.284 716.763 141.945 720.721 134.1C727.271 128.577 712.746 128.079 712.59 138.479ZM718.219 177.887C719.224 171.386 726.361 171.015 730.104 167.253C730.664 164.048 740.835 154.69 738.862 163.5C741.258 168.823 740.208 173.305 733.857 176.01C728.732 177.216 723.082 183.826 718.219 177.887ZM733.857 152.24C732.519 141.615 740.826 127.085 748.244 134.725C746.006 139.194 740.981 155.998 733.857 152.24ZM746.368 154.117C754.988 152.193 758.106 162.589 764.508 166.002C771.166 169.671 775.155 177.863 779.521 182.265C771.635 181.833 764.322 176.28 757.627 172.882C755.861 165.201 751.221 154.849 746.368 154.117ZM748.244 152.24C750.891 146.717 761.654 144.448 766.385 139.104C776.153 138.056 782.954 134.755 791.406 137.228C798.53 145.252 776.346 141.646 773.891 147.236C766.707 149.869 756.456 153.319 748.244 152.24ZM761.38 168.504C760.135 164.692 760.22 170.557 761.38 171.006C765.301 174.456 764.961 168.847 761.38 168.504ZM796.41 96.5684C791.291 100.636 802.798 95.4981 804.542 93.4408C807.945 87.0623 795.498 92.5663 796.41 96.5684ZM836.443 128.47C840.916 125.537 847.086 124.19 847.703 122.84C847.772 125.793 839.647 131.572 836.443 128.47ZM840.822 109.079C839.281 113.921 840.136 112.089 845.826 113.458C854.093 107.982 839.913 113.48 840.822 109.079ZM843.324 94.0663C846.52 83.7264 863.014 87.0973 865.218 96.5684C864.645 108.594 846.122 101.148 843.324 94.0663ZM846.452 70.9219C849.345 61.9325 857.329 75.0222 857.711 80.3048C852.3 84.3901 849.678 77.4812 846.452 70.9219ZM868.345 104.075C867.841 99.9231 869.475 98.2874 868.971 103.449C878.105 103.827 869.925 93.706 869.596 88.4366C866.739 79.7043 870.384 67.2382 872.724 61.539C878.865 51.5976 880.599 65.553 878.354 75.9261C884.964 84.5377 871.305 98.8197 883.358 95.9429C893.429 92.8265 888.75 82.541 888.362 72.7985C886.747 66.3218 891.109 45.9641 895.243 55.9093C901.208 63.6395 896.18 74.0401 897.745 77.1771C902.417 71.1765 902.588 61.5578 907.128 54.0327C908.376 48.7846 923.814 36.9778 923.391 47.152C919.896 54.9147 918.217 64.4971 911.506 69.0453C905.56 71.1533 896.438 88.441 912.132 80.9303C917.785 77.9134 939.198 79.0049 925.894 84.6834C917.204 87.4239 910.807 93.3407 898.37 91.5642C884.568 92.7677 915.705 102.416 897.745 102.198C895.462 101.561 893.025 101.08 892.115 99.0705C895.492 89.687 889.984 94.4022 883.983 98.445C885.916 101.78 875.341 105.268 868.345 104.075ZM915.26 53.4072C915.11 48.6326 909.307 55.965 909.63 59.0369C909.795 61.97 915.749 54.8165 915.26 53.4072Z"
        fill="black" />
</svg>