<svg xmlns="http://www.w3.org/2000/svg" width="229" height="84" viewBox="0 0 229 84" fill="none">
    <path
        d="M0.0611287 16.3674C3.43656 19.1967 9.09615 21.6364 12.636 23.2956C16.772 24.8096 20.9011 26.2809 24.8725 26.956C28.6926 27.3744 34.1195 29.214 36.6454 29.7982C40.248 32.8475 31.4174 39.1831 35.9144 38.4287C38.2529 34.089 40.687 26.28 39.0785 34.4734C38.8592 40.852 41.0104 40.432 41.4135 34.0151C44.2001 29.0695 42.7795 39.9235 41.3863 41.5982C43.6113 40.7793 46.2661 33.8183 43.6392 31.4565C48.4694 34.4052 45.6844 39.3733 42.6629 43.4694C44.9058 44.3555 48.4667 36.6494 48.0636 33.9223C47.3319 27.7419 51.3646 38.3582 47.8073 40.3379C48.5236 42.3273 53.1676 33.0142 49.1219 31.5928C45.0547 30.7241 40.3506 29.2855 36.6508 28.2816C32.5099 26.7425 28.6137 26.4585 24.5288 25.2048C20.5753 24.9157 15.821 23.22 11.9431 21.3098C7.60111 20.2707 3.5126 16.6005 0.0611287 16.3674ZM3.44349 16.6128C8.2099 19.2491 13.9167 18.2554 19.297 20.1696C24.7963 21.4238 30.6185 24.3133 35.9634 24.7792C31.3745 21.9353 24.9298 20.8623 19.6516 18.8875C13.9295 16.5 8.96622 17.9846 3.44349 16.6128ZM34.9485 14.9758C36.9948 19.4697 37.1731 26.3064 44.4739 26.443C49.8717 27.18 56.1866 32.5787 60.1091 25.799C64.2189 19.7392 62.3873 14.8437 64.7187 9.13267C69.0791 4.5283 75.7176 0.623453 65.7825 5.28658C60.411 10.3716 62.6624 16.1637 61.0583 21.3692C60.8597 22.6446 59.2437 24.8923 58.5925 25.7936C57.112 26.6177 61.7176 17.6431 56.023 26.601C45.7184 32.0366 60.4358 24.3518 57.5668 19.0234C57.557 17.789 56.8173 16.0034 56.5302 15.2865C49.3057 8.75274 56.6319 15.9731 56.0502 19.018C59.4214 24.7877 43.6818 30.8841 53.2352 23.2078C55.9744 19.5615 49.2694 7.2137 52.0895 17.3705C54.7147 22.4864 42.7564 32.112 50.442 21.3312C51.4123 18.4622 44.4936 7.29236 45.4611 11.3969C48.7905 14.401 50.4853 23.6366 46.6996 23.8844C48.1159 12.5481 45.5939 20.4298 44.9484 24.2281C42.9843 17.7142 42.0834 12.7722 42.8535 22.8206C40.9152 25.5601 38.3398 15.9985 34.9485 14.9758ZM40.7858 13.8301C39.7266 15.1804 38.499 19.339 40.0712 17.9108C39.818 17.4994 42.8327 13.4408 40.7858 13.8301ZM56.1919 12.0187C59.1794 14.0866 57.8884 21.4297 59.4271 20.7801C59.0067 17.9558 60.0505 10.998 56.1919 12.0187ZM50.7531 32.182C55.4649 35.8463 46.5281 46.0916 49.1821 47.3427C52.827 44.053 53.4942 28.5284 54.7029 36.8627C52.4413 43.7422 50.8988 52.0549 55.6249 40.0159C57.5019 27.622 57.6376 41.1634 56.3069 45.0349C52.7627 57.72 59.0306 46.3753 57.7198 41.4234C58.0929 29.6296 60.0458 37.8664 59.111 43.8783C60.0901 54.7169 61.4228 48.9915 60.2839 42.1326C64.6712 34.6016 56.2062 32.3435 50.7531 32.182ZM68.9194 8.9144C65.6147 14.0081 65.5085 18.4752 63.2678 23.3604C60.8718 30.4709 51.4496 29.504 61.1402 31.0526C65.5167 30.7016 70.3972 32.9154 74.8988 33.2019C79.4468 33.7262 84.2492 35.5389 88.772 35.9349C93.3841 36.784 98.1088 38.2024 102.645 38.6679C107.418 38.7041 111.91 41.613 115.133 37.4293C117.991 32.6845 120.205 29.6502 122.765 23.807C123.689 19.3179 123.271 14.5941 123.512 10.6267C123.412 2.29845 121.749 14.8237 121.739 17.0369C122.52 21.3286 120.576 26.1568 117.838 31.1392C111.584 41.1179 113.362 35.7648 116.911 29.5026C120.096 25.0858 120.112 15.8504 117.391 25.7711C116.567 28.504 111.312 39.7439 111.407 35.4327C113.071 30.6606 113.289 26.1716 115.307 21.3304C119.465 16.7226 121.294 7.13124 116.371 17.4843C113.232 22.4085 112.121 27.4319 110.954 31.5812C108.006 41.051 107.947 34.7365 110.495 29.2462C109.751 25.8682 116.532 17.6315 115.323 16.7805C111.256 22.0239 109.243 26.8657 108.504 31.4557C109.306 32.3399 107.414 34.4313 107.675 34.9527C100.958 41.3474 107.471 32.7695 105.929 33.7798C97.6847 41.3989 105.323 32.4081 107.222 31.1011C110.147 23.1473 108.627 23.4432 104.887 31.5594C98.8799 38.5533 98.5106 36.6841 104.429 29.2245C106.995 24.4128 109.114 19.1913 112.765 14.5548C114.096 11.2485 124.348 2.79425 118.978 6.06059C115.016 8.51908 111.597 13.7561 108.199 19.0883C105.416 24.0796 103.8 28.8433 99.6283 34.1072C91.2024 38.4013 100.019 31.4107 102.454 26.8841C107.943 16.0806 100.548 27.7736 97.7734 30.8339C91.0391 39.3082 92.9132 31.4093 98.368 27.6861C101.884 22.9525 105.425 18.3364 108.804 12.9073C108.645 10.5384 102.249 20.1706 100.25 23.3763C96.5658 27.2527 93.3135 33.3373 89.012 34.0691C87.7271 34.8999 95.5165 29.0333 97.3314 23.9492C100.743 18.6815 104.165 13.4629 107.997 10.3378C115.427 3.61624 105.012 10.0295 103.201 13.7038C98.5988 17.1051 97.7864 22.6784 93.8182 27.6698C87.0317 36.3943 95.8679 22.86 96.644 20.4468C99.2771 14.9875 101.675 7.92853 96.1857 18.1119C94.0156 22.8459 92.1686 28.0139 88.4337 32.6671C83.0441 35.7676 80.7202 29.949 85.6623 24.724C88.5761 14.9488 81.2618 33.7431 81.4507 27.9755C80.9749 37.1736 77.3519 31.3006 81.5762 25.526C84.5496 20.076 87.5914 15.5931 91.5431 11.4454C96.5808 6.61052 93.1145 1.00804 88.7825 0.46916C95.1033 3.39931 92.6822 9.03948 88.2698 13.3003C88.9501 12.904 84.8342 2.11525 85.4766 11.4237C87.8059 15.2746 81.4718 21.3233 80.0596 25.5206C79.0218 33.6424 72.7152 31.713 78.0792 24.6968C82.4223 20.355 83.7742 15.2436 83.2617 10.9491C81.6221 2.11948 82.0256 13.1895 81.2596 16.1918C80.5202 20.7823 73.798 26.548 73.8568 30.9815C70.7208 30.5089 76.3718 22.4946 77.5173 18.745C73.2692 23.103 70.9719 30.4596 71.5219 31.4398C67.959 27.694 76.5663 21.5581 76.0061 17.2229C76.4581 12.8264 78.8966 7.54204 80.8394 3.24061C77.7662 6.18865 75.04 12.6065 74.9586 16.5192C75.6031 18.3726 67.1105 31.9513 70.027 25.3679C64.0326 33.9243 68.5773 24.922 70.2779 20.469C72.5826 12.6866 72.0147 12.5189 68.7668 18.9469C69.5806 16.8576 73.2201 3.83162 69.7268 11.4839C67.8211 16.3033 68.5035 20.6157 64.6589 25.8154C56.4992 34.4772 64.2888 25.0629 65.4935 20.8018C65.5329 17.5708 70.4954 8.73269 68.9194 8.9144ZM63.0114 29.776C63.0032 29.7061 66.5964 25.9419 67.8176 23.3767C68.2171 25.4061 64.8173 29.8177 63.0114 29.776ZM60.7802 33.8512C64.3942 36.999 59.6873 52.3989 62.7116 48.3245C63.8066 44.2358 63.5366 27.5333 64.8391 40.6323C65.8238 42.0555 63.9912 44.032 64.5882 45.5313C62.0251 55.9023 67.4622 42.5284 66.4757 39.7048C71.4693 38.3962 64.889 51.1931 66.5359 55.4546C67.2448 49.6968 72.35 41.2013 67.3049 36.2079C75.0439 41.1545 67.5325 49.0966 69.8037 55.1164C72.2528 62.9193 75.6086 69.0573 73.1807 56.8784C74.4177 50.17 75.1952 43.5497 70.6818 37.97C74.5051 33.8769 82.2373 44.7485 79.9726 49.7863C81.7306 58.1471 82.0348 40.6541 77.7957 38.6955C84.4933 42.8963 81.3752 50.5376 83.0986 56.4473C83.1604 58.0517 85.237 59.2609 85.7664 60.7734C93.9437 68.7409 84.9794 57.5007 84.0369 55.0507C85.5864 50.8935 80.7531 38.2165 83.0384 40.6975C85.6653 47.1904 86.5328 57.0803 85.477 43.8562C80.6699 32.8382 91.0265 46.5782 87.5502 51.3301C87.7532 65.0465 90.3835 49.467 88.1557 45.1491C86.4302 35.7834 92.7291 53.1322 92.902 55.4325C94.1733 61.6486 88.322 69.2648 90.1473 75.3721C91.4959 79.2873 91.1459 64.7901 94.5169 60.5715C94.9337 54.0241 91.8294 48.1656 89.6831 42.1213C86.0749 39.3956 92.9166 43.1398 91.5435 43.8779C94.6212 52.7514 95.0217 47.6094 92.3672 41.8976C98.3467 43.9487 94.278 62.5525 96.8898 49.4969C97.7644 47.7088 96.8324 46.275 95.9733 44.8271C88.3876 37.3073 103.484 47.6095 98.9847 50.9044C97.5388 57.6538 97.1786 64.1922 94.4788 71.1877C97.6818 69.4752 99.0208 58.342 99.7922 53.4739C104.01 46.1288 90.4899 39.0198 104.495 43.4577C109.992 39.7098 116.538 49.8037 114.718 55.394C114.781 58.4405 112.469 75.1377 115.373 67.9961C115.703 61.4654 115.912 54.957 115.209 48.6293C112.479 40.735 108.744 43.1968 101.003 41.1119C94.4599 40.7182 87.6869 39.1595 80.949 37.7734C74.0645 35.6408 67.3823 34.5465 60.7802 33.8512ZM71.5002 37.5062C75.3828 42.078 75.2646 47.8739 75.9956 52.6886C75.6018 58.0997 77.3405 63.5312 82.2423 67.5273C79.8721 62.6587 75.9144 57.6631 77.1631 52.4595C75.644 47.4239 76.5447 41.4747 71.5002 37.5062ZM74.5279 39.0337C78.1956 43.4428 76.4579 49.3622 77.7414 53.8615C78.2282 58.8173 83.6206 62.8117 87.0267 67.1945C86.4306 62.1826 78.214 58.2169 79.1434 53.2832C77.4424 48.5658 78.694 43.2673 74.5279 39.0337ZM88.7064 21.7017C86.9396 24.9016 83.9586 28.692 83.5348 32.4162C84.7466 29.865 88.7364 24.8196 88.7064 21.7017ZM100.31 6.69365C97.2025 11.5465 93.1011 16.5959 91.625 21.1288C91.0506 24.3627 84.0597 33.1064 86.9171 32.6616C90.1911 27.7758 91.9509 23.1863 94.4345 18.4556C95.5827 15.2004 102.299 6.21815 100.31 6.69365ZM102.509 44.1506C101.475 48.7986 100.896 53.3588 99.7759 58.0237C99.7557 62.1985 101.495 67.0218 101.014 70.5112C103.535 65.5711 100.805 61.6606 101.412 57.0963C100.846 53.0367 104.284 47.1973 102.509 44.1506ZM104.26 43.8068C105.261 49.8739 101.197 56.9373 103.726 62.7044C103.408 56.5031 106.567 49.6177 104.26 43.8068ZM106.006 44.9797C105.52 50.5304 108.625 55.3782 107.348 61.0841C107.865 66.3164 101.174 73.4023 101.92 78.2142C104.222 72.3071 108.829 65.9457 108.75 60.5058C110.092 54.9086 107.2 49.7035 106.006 44.9797ZM107.293 43.8177C109.212 47.0779 108.899 50.7774 109.939 54.2103C110.525 57.7323 109.757 61.521 109.667 65.1757C111.091 61.2591 111.278 57.5844 111.107 53.9811C109.914 50.5786 110.928 46.7414 107.293 43.8177ZM125.47 17.5169C125.137 21.479 123.582 26.206 120.992 30.2172C119.732 34.8019 113.662 39.416 112.907 39.9879C116.949 40.7312 119.944 33.4605 122.743 29.8735C124.367 25.6579 127.844 20.5537 125.47 17.5169ZM110.67 45.5798C112.15 51.6461 113.473 58.1349 111.652 64.4828C108.336 71.4905 109.611 77.9886 113.802 83.1567C110.576 77.4332 110.142 70.7699 112.82 64.2537C113.619 57.7401 114.607 50.7977 110.67 45.5798ZM138.23 5.31296C134.403 12.9341 131.494 20.3768 125.198 28.4823C123.191 30.5126 123.339 32.8125 122.377 34.1887C122.655 35.3706 120.167 37.7897 119.912 38.6131C117.203 41.8779 126.561 26.3713 120.392 34.8816C110.819 47.0301 127.124 35.9641 126.949 28.1386C132.797 20.1212 136.837 12.4564 138.23 5.31296ZM114.407 44.5432C115.385 47.1802 116.954 49.7014 117.179 52.4863C117.286 49.6367 117.594 46.7463 114.407 44.5432ZM115.929 43.032C117.975 46.3214 119.256 50.3004 118.341 53.7737C118.036 57.5245 117.792 61.8028 117.833 65.0883C117.156 68.9122 118.834 72.8133 121.412 75.6008C125.366 82.9247 122.802 74.379 120.49 72.4476C118.069 69.2319 119.284 64.763 119.246 61.4768C119.991 57.6396 121.949 53.0249 121.505 49.8185C120.535 45.2997 120.546 40.7285 122.563 47.489C123.243 50.9927 122.547 54.767 122.874 58.3399C122.237 62.1562 124.223 65.9966 125.869 68.967C126.842 71.3807 134.227 79.1712 129.939 72.7148C127.715 69.4605 125.156 65.7323 124.609 62.546C123.954 58.9835 124.547 54.6367 123.949 51.4606C124.385 43.2753 124.719 52.2584 125.455 54.4992C126.086 50.6844 125.502 46.5685 124.211 43.5284C126.834 46.7047 127.686 50.7677 127.789 54.0409C129.232 55.358 130.986 65.0145 130.686 59.5345C130.378 55.904 128.307 52.0802 127.691 48.9074C125.02 42.3953 127.526 44.0031 129.208 48.9128C129.657 52.5156 131.644 56.3562 132.203 59.5399C132.04 63.2629 133.3 67.246 132.863 70.6254C133.25 75.8696 136.31 78.2152 134.609 71.7983C134.154 68.1965 133.776 64.0404 133.365 60.8274C132.979 57.2123 131.622 53.2481 130.37 50.2003C128.159 43.085 131.561 48.7492 132.579 52.1915C133.894 55.6245 135.426 59.5542 136.158 62.704C136.997 65.8599 137.07 71.1154 139.622 72.6329C139.24 69.0169 136.749 65.2754 137.211 61.8912C136.203 58.3981 134.661 54.4703 133.632 51.3786C132.263 48.4482 130.677 42.9293 126.196 42.8355C124.188 43.798 114.571 40.7409 118.957 44.5595C121.3 46.1695 120.384 55.2846 119.628 52.6117C120.036 49.2617 118.976 44.7924 115.929 43.032ZM141.842 6.72587C141.054 12.2143 139.778 18.2374 134.663 24.1997C130.832 26.5442 124.354 42.1751 125.754 35.9508C125.546 33.5505 138.769 16.1616 130.691 25.5854C126.266 30.571 123.684 40.0416 120.839 40.2497C126.257 40.6762 132.081 40.9406 137.053 41.0078C142.309 41.0248 147.803 42.2423 152.344 38.6127C156.229 38.655 164.503 23.5468 159.845 28.9565C156.563 34.6132 149.816 38.5957 147.909 39.1801C152.53 35.2102 157.136 27.0351 158.819 22.1863C160.204 18.2569 160.793 8.57281 158.748 9.46974C158.851 14.7834 158.587 20.608 155.655 26.1416C155.24 30.2838 142.273 43.7685 150.38 33.2391C153.215 29.0635 157.334 17.7885 155.213 19.2568C152.469 24.7998 151.536 30.885 146.403 36.1415C139.079 42.6138 149.764 27.3449 150.527 24.7232C153.771 18.8331 153.663 13.5993 154.553 8.1714C151.559 14.0928 152.481 19.6846 149.125 25.3015C145.839 28.4808 140.017 44.4791 141.739 35.5414C141.328 32.7352 154.363 17.2284 148.083 23.0812C143.121 28.304 140.403 34.7397 138.689 40.0804C137.373 35.0049 142.792 28.1689 145.868 22.6066C150.53 16.4381 151.494 10.9943 154.564 5.13819C151.465 6.66447 149.617 15.9954 145.759 20.5062C142.506 26.3979 137.889 32.5591 136.48 38.0892C132.394 41.5093 139.763 28.6197 141.542 25.2743C145.599 17.9395 134.904 33.9595 134.619 36.3325C126.927 44.6441 137.523 28.8096 138.389 26.1963C142.295 20.3784 143.617 10.4649 138.869 22.4648C137.031 26.7566 131.573 37.6643 129.95 37.2491C130.148 35.9738 131.764 33.7261 132.415 32.8247C137.461 23.6221 128.856 36.2635 127.729 38.2911C126.157 36.0769 134.499 27.1514 137.118 22.8085C140.698 17.8565 143.758 11.3544 141.842 6.72587ZM130.512 43.201C134.034 46.2009 134.647 50.3108 135.258 53.4844C137.962 57.5136 135.355 47.7506 134.816 46.5996C134.595 41.3231 137.779 51.0363 136.895 52.5569C137.428 56.1432 138.525 60.1583 140.473 63.0695C141.66 66.5279 144.27 70.2458 146.971 73.0092C151.351 79.1859 152.832 76.7958 147.789 72.5455C145.23 69.3568 143.098 65.5448 141.292 62.6058C139.434 59.2795 138.582 55.2162 137.713 52.0932C137.213 48.9433 136.701 41.2693 140.762 47.5543C142.73 50.8591 143.411 54.9559 144.341 58.0668C145.219 59.8112 148.94 69.2005 147.587 63.795C146.849 60.249 145.358 56.3114 144.592 53.1679C145.25 50.9688 137.484 43.558 141.586 45.5739C144.904 49.4132 150.429 51.757 147.98 51.8967C150.252 55.1418 152.3 58.9702 153.31 62.0655C154.614 65.4462 155.614 68.8886 158.875 71.8852C164.539 78.7647 159.897 69.6581 157.254 68.2629C156.044 65.4757 153.454 59.9337 153.321 59.0323C155.19 60.6136 159.471 69.2694 159.131 65.4697C157.393 62.1197 154.014 58.5525 153.217 55.4154C151.881 52.2825 146.909 48.2475 145.667 46.2886C150.042 47.8455 154.318 52.2758 155.552 54.9571C157.482 58.2693 159.817 62.0414 161.466 65.0114C162.284 62.3196 158.679 58.5863 157.767 55.4317C154.666 52.4931 150.74 45.9612 156.261 52.393C159.533 55.4418 161.044 59.3758 163.343 62.2182C164.838 65.6156 165.884 69.6408 166.921 72.7307C169.552 79.3389 167.909 68.7002 166.823 67.5972C165.56 64.1541 163.58 60.3123 161.493 57.4283C159.104 54.2064 157.275 50.3349 152.661 47.9469C145.274 43.1812 157.755 48.0694 157.783 50.8819C161.105 53.867 162.813 57.1696 164.515 60.4724C167.992 67.2326 168.093 63.49 165.219 59.425C163.393 56.0925 161.22 52.2884 158.138 49.5998C151.375 45.4358 152.499 44.4426 158.727 47.9687C161.889 51.0389 164.653 54.727 165.808 57.7938C167.947 61.0649 168.386 65.2092 171.722 67.8481C176.907 74.6789 175.75 69.5602 171.728 66.3315C169.02 63.1716 168.18 59.1064 166.397 56.1626C164.7 52.8049 161.731 49.1572 158.149 46.5666C155.299 42.7415 165.721 51.2796 165.95 50.7945C168.649 53.9557 171.335 57.659 174.783 60.2759C181.671 65.1543 182.524 62.7595 175.486 59.2285C171.642 56.2921 169.33 52.5153 166.654 49.747C160.231 41.9302 169.376 55.1624 162.928 47.7504C154.801 44.2665 158.614 44.7249 163.402 45.5355C166.824 47.464 170.107 51.8305 172.12 54.4332C175.091 57.2179 179.208 60.9243 183.408 62.5234C182.481 60.1052 175.114 56.5402 173.522 53.8549C171.473 50.8619 166.433 46.8402 165.388 44.8426C169.973 46.5428 172.095 51.1373 175.273 53.5112C179.571 57.2276 172.095 48.4202 171.329 47.3139C166.579 43.9169 162.368 42.1704 169.823 44.2752C173.621 47.2207 175.621 51.0586 178.072 53.8712C179.842 57.2147 184.599 60.5115 186.905 63.3526C190.772 66.1524 184.371 58.3345 182.027 57.0353C179.196 53.9001 177.132 50.0747 174.362 47.3247C167.277 41.0217 177.47 46.4469 178.672 49.2068C181.571 52.7661 188.494 57.3429 182.398 51.2034C179.809 48.3129 175.471 44.0109 171.929 42.6495C168.052 41.703 163.785 41.5175 160.729 42.726C157.307 44.098 152.837 42.8741 149.873 44.5537C146.213 44.7133 141.777 43.6668 138.444 43.4627C136.154 43.4758 132.614 43.9661 130.512 43.201ZM138.553 45.5631C138.873 50.0134 139.162 54.9554 141.423 58.6397C140.441 54.3191 139.833 49.4402 138.553 45.5631ZM164.455 12.2901C163.332 16.4072 162.463 20.9996 162.895 24.4176C162.643 28.0752 162.533 33.2772 158.885 36.4195C157.419 38.9466 147.284 41.5736 152.802 40.9476C156.886 42.1921 160.318 40.1142 164.237 40.5219C168.001 39.8489 172.421 39.8371 175.792 39.1634C179.532 38.3691 184.095 39.0879 188.034 41.3072C192.594 43.0537 196.387 47.6909 200.952 49.9866C206.13 51.6798 196.111 45.5746 193.625 43.5439C190.761 40.747 183.892 38.445 181.978 38.2523C173.859 38.7286 184.332 36.2848 186.184 36.5174C188.76 36.1813 193.671 33.7834 197.499 37.0246C202.085 40.8299 205.783 40.1091 209.735 40.685C215.436 40.9175 217.659 36.8647 211.023 39.523C207.133 39.2641 203.316 39.3828 199.015 37.03C190.07 33.0279 195.482 33.5385 200.303 35.868C204.642 38.4183 208.551 38.7687 212.196 37.7773C214.26 38.1055 224.428 34.6843 218.153 35.6987C214.403 36.4497 210.209 37.6082 206.598 37.0572C202.588 36.4809 197.42 32.6753 194.013 33.1622C188.713 33.9621 198.467 30.4474 200.663 33.0694C203.65 35.6194 214.066 36.7382 206.025 34.1386C202.375 31.7039 196.611 31.1742 194.956 30.249C197.692 25.8153 199.051 21.1268 199.435 17.5487C200.507 12.7771 198.77 8.15888 198.508 15.9121C197.874 19.9332 197.367 24.4541 195.196 28.3832C192.795 30.3746 189.751 31.982 194.503 26.3975C196.597 22.0898 196.829 17.6224 197.815 13.9263C197.665 12.0341 198.217 2.59997 196.325 6.33786C196.992 10.1038 196.318 14.6578 195.349 18.3507C194.92 22.274 192.531 26.583 190.521 30.8164C186.432 34.9258 192.261 23.8511 192.769 22.1914C194.633 15.6088 188.81 27.259 188.661 29.0598C186.929 37.9589 185.934 30.0679 187.853 26.4903C188.682 24.3659 196.056 12.2676 190.914 18.9181C187.704 23.445 185.889 28.2229 185.851 31.733C184.35 30.3706 186.574 24.5329 187.99 21.0076C190.109 16.6949 194.153 11.4794 194.803 7.84903C196.148 -0.974319 193.571 7.6177 192.108 11.106C189.052 15.6026 186.551 20.5149 185.878 24.15C184.256 26.9745 184.447 34.4171 182.343 33.937C183.311 29.8504 183.167 25.4569 184.487 21.695C188.494 14.0635 186.046 14.9211 183.554 21.575C180.644 26.0431 180.231 30.5459 179.076 34.2753C175.854 40.8394 178.014 30.4041 179.097 28.2089C179.517 24.2297 183.829 18.9617 184.744 15.2794C181.932 18.5796 179.204 23.7357 178.05 27.5051C176.667 29.8583 175.311 39.9424 174.635 36.3593C174.439 32.559 176.473 28.3193 177.128 24.3519C177.466 20.6774 181.73 14.6597 181.721 12.2354C178.788 15.4526 176.443 21.2946 175.96 24.5811C174.674 28.7303 173.069 33.467 173.233 36.9376C170.574 38.3142 172.471 30.5794 172.682 27.9525C174.28 23.7422 173.983 19.3786 172.491 16.1688C171.109 10.1044 168.145 10.6842 171.323 16.398C172.591 20.0459 172.621 24.4618 171.514 28.1817C170.275 28.0431 171.203 21.4204 169.681 18.842C168.548 14.0214 163.43 10.4683 167.821 17.0854C168.749 20.8 170.355 24.9063 169.763 28.5254C170.298 31.7117 166.4 40.8545 166.828 33.6481C168.624 28.7345 168.103 23.8775 166.484 31.8969C167.874 35.7192 162.236 41.0475 159.693 38.989C152.528 41.7219 157.096 39.7454 160.985 36.3104C164.229 31.777 163.919 27.4161 163.713 23.9538C163.733 20.1111 165.012 16.02 164.455 12.2901ZM144.608 48.618C146.348 52.9238 149.162 57.0199 150.162 61.4709C151.961 65.7649 151.48 70.5083 156.883 74.0947C153.504 70.1111 152.772 65.6059 151.33 61.2418C150.31 56.7948 147.785 52.6417 144.608 48.618ZM165.339 26.0596C165.507 30.6796 164.902 33.3018 162.262 38.1816C166.174 34.4494 166.207 29.6417 165.339 26.0596ZM169.496 37.9742C169.159 37.4832 170.067 32.0831 170.691 30.162C171.206 31.4455 170.841 36.7394 169.496 37.9742ZM172.867 41.2529C176.524 42.8736 183.368 47.2937 185.317 50.6306C187.766 53.8111 190.634 59.795 192.513 61.0394C191.51 56.9285 188.339 52.745 185.671 49.3486C183.483 45.3484 176.479 41.4924 172.867 41.2529ZM176.021 40.3309C179.152 42.4563 185.266 44.315 187.892 48.3065C190.993 50.7892 195.245 56.5513 198.012 56.6259C195.119 53.1526 191.238 49.8721 188.132 46.4408C184.82 43.5096 180.495 41.2003 176.021 40.3309ZM180.456 39.7634C187.338 41.8932 195.465 51.5471 200.357 53.1344C195.885 49.3681 187.178 40.1136 180.456 39.7634ZM203.325 6.47962C201.764 12.2415 203.147 17.4269 199.997 23.5006C192.008 32.6457 197.594 30.1241 204.285 31.4491C207.634 33.9317 220.714 35.6839 216.293 33.9421C211.013 32.3876 203.73 29.6161 199.861 28.9833C204.18 23.8936 206.242 17.065 206.805 11.8586C209.6 0.280557 203.265 16.4069 204.214 18.7325C203.654 24.2719 193.076 35.8003 201.399 22.9223C204.177 17.0433 203.884 11.3281 203.325 6.47962ZM184.313 37.794C187.487 38.4813 193.424 41.4608 197.357 44.0239C201.672 45.4217 205.445 44.0478 209.49 44.0674C206.087 42.2159 201.176 44.4633 197.362 42.5073C192.753 39.6116 188.295 37.4943 184.313 37.794ZM187.935 36.1737C190.391 36.5622 195.587 38.3631 198.655 39.8287C195.603 36.4018 190.579 35.4783 187.935 36.1737ZM211.262 5.22477C206.89 11.1343 208.091 15.9512 206.538 21.3074C199.219 31.4359 201.708 26.8845 208.737 26.3318C210.007 26.5045 212.02 26.9241 212.932 27.6302C221.546 30.2526 211.461 24.9729 209.091 25.0498C210.256 22.5155 218.92 27.4094 222.844 28.7157C221.933 26.915 212.585 21.8946 209.097 23.5332C210.3 19.9492 220.162 22.5159 220.308 20.4235C213.259 21.1268 209.568 19.8585 218.796 18.9014C223.923 20.1696 231.985 14.585 222.419 17.2811C216.121 17.3011 212.682 19.4635 217.645 14.5807C219.546 13.0453 231.945 5.69394 224.786 7.72319C219.836 12.7765 213.797 15.989 222.451 8.18147C230.558 2.60753 217.358 8.15691 216.483 13.2933C209.502 23.51 217.855 6.46567 221.06 5.72655C223.694 -0.224822 213.133 12.2904 213.559 15.3827C213.134 19.6915 200.279 29.9414 208.409 20.0308C207.581 15.6355 210.727 8.64215 211.262 5.22477ZM213.946 5.00106C211.794 7.34517 208.516 17.3143 210.766 13.5061C210.481 11.4658 218.948 0.698588 213.946 5.00106ZM216.865 4.42821C213.854 8.7307 207.978 20.8157 211.213 18.8742C209.56 15.3196 221.465 2.11434 216.865 4.42821ZM203.249 27.7121C205.48 29.0107 211.892 30.6539 214.907 29.9705C212.627 28.4274 206.433 27.8904 203.249 27.7121ZM217.056 16.2119C219.345 15.9287 225.085 15.1998 228.272 11.5856C225.883 11.3592 220.697 14.9075 217.056 16.2119Z"
        fill="#222222" />
</svg>