<svg xmlns="http://www.w3.org/2000/svg" width="208" height="58" viewBox="0 0 208 58" fill="none">
    <path
        d="M151.94 58C156.849 57.0724 161.578 55.6202 164.877 53.4026C170.675 48.5753 161.247 55.1658 158.678 55.2956C161.71 55.1496 168.343 45.8764 162.452 51.2391C159.956 54.5033 155.24 55.5417 151.94 58ZM145.742 57.7296C149.037 57.6106 150.984 56.1394 153.558 55.2956C155.639 54.0922 158.174 52.8617 160.026 51.78C161.766 50.2331 163.358 48.0561 165.147 46.9121C166.915 45.3923 169.179 43.8914 170.268 42.0443C171.765 40.1215 173.903 38.8396 175.658 37.1764C177.579 35.8107 179.779 34.2449 181.857 33.3903C183.777 32.2869 187.024 31.0754 189.404 31.4973C190.442 31.6109 185.98 34.1557 184.822 34.7425C182.777 36.1163 181.098 37.8579 179.431 39.6104C177.905 41.3709 176.281 43.5154 174.85 45.0191C173.11 46.566 171.518 48.743 169.729 49.8869C168.054 51.4987 166.423 53.6379 164.608 54.7548C160.961 56.7749 168.343 54.4573 168.651 53.673C170.727 52.4642 172.745 50.7145 174.311 49.346C175.963 47.7126 177.92 45.9007 179.162 44.2078C180.404 42.1606 182.36 40.3486 184.013 39.0695C185.72 37.3576 187.427 35.6431 189.134 33.9312C190.97 32.479 193.331 31.0754 195.333 30.1451C197.654 29.1823 201.8 29.5664 203.688 28.5225C206.062 27.6111 207.146 24.9257 208 22.8433C206.708 20.9557 202.11 22.5864 199.915 22.8433C197.103 23.4761 192.952 23.0434 190.751 22.5729C188.315 21.7237 185.026 21.2505 183.205 20.139C180.967 19.0897 178.661 17.6293 177.006 16.3529C174.618 15.3252 173.667 12.8507 171.346 11.7554C169.8 10.0138 167.055 8.99429 164.608 8.51021C162.293 7.53934 159.201 6.86866 158.139 4.99454C157.192 6.15471 160.928 8.49939 161.913 9.59195C163.541 11.2524 166.179 12.3774 167.573 13.9189C168.865 15.9147 171.216 17.3318 172.963 18.5163C170.803 18.3649 168.258 16.4475 166.764 15.2711C164.864 13.8838 162.684 12.2963 161.104 10.9441C159.397 9.23227 157.69 7.51771 155.983 5.80585C154.898 3.6018 152.557 2.1766 151.401 0.39713C148.132 -1.32284 153.427 3.03118 153.288 4.18323C154.773 5.98704 156.158 8.37229 157.6 9.86239C159.718 13.2834 154.929 8.71574 154.097 7.96934C152.23 6.54955 148.961 6.05465 147.089 4.99454C141.884 3.47469 148.168 6.52791 149.245 6.88759C151.739 7.67727 154.165 9.01863 155.714 10.4033C157.66 11.8744 159.781 13.1725 161.374 15.0007C163.018 16.5151 166.228 19.809 162.452 16.8937C160.685 15.3739 158.558 13.7323 156.792 12.5668C155 11.0712 152.703 9.60277 150.862 8.51021C149.489 8.15053 144.207 4.97832 145.742 6.88759C147.799 8.11537 150.395 9.28636 151.94 10.6737C154.013 11.888 156.277 13.3916 158.139 14.4598C160.119 15.766 162.089 17.5644 164.069 18.5163C165.777 20.2282 168.36 21.0611 170.268 22.5729C172.541 23.5843 175.234 24.6579 177.814 25.0068C183.81 26.121 175.036 25.9858 174.041 25.2772C171.147 24.8878 168.551 23.7168 166.494 22.8433C164.318 21.7345 162.413 19.8712 160.835 18.5163C159.353 16.7098 157.153 15.144 155.444 13.9189C153.195 12.8832 151.268 11.0415 149.245 10.1328C147.342 8.7509 144.671 7.65563 142.777 6.61716C137.984 4.81605 143.496 8.29657 144.933 8.78065C147.106 9.89484 149.652 11.1118 151.132 12.5668C152.946 14.0406 155.442 15.309 157.061 16.6233C159.203 17.7672 160.796 19.9442 162.182 21.4911C163.663 22.7027 167.518 24.2334 167.573 25.0068C165.019 24.2766 162.157 23.3734 160.296 22.3024C157.591 21.7237 156.049 19.4953 154.366 18.2459C153.417 16.8315 149.629 14.3057 150.593 13.6485C150.646 13.2537 147.3 10.8657 145.472 10.1328C143.507 8.81039 140.825 7.72865 138.734 6.88759C133.045 5.27309 137.436 8.07481 139.812 8.23977C142.118 9.21875 144.436 10.6683 146.011 12.0259C148.268 13.186 149.565 15.3117 151.401 16.8937C152.094 17.8294 156.987 21.8914 154.097 20.4094C151.84 19.3817 150.543 16.9072 148.706 15.812C146.983 14.2489 144.75 12.7128 143.046 11.485C140.783 10.3302 138.623 9.07272 136.039 8.23977C133.282 7.71242 129.792 7.43928 127.145 7.15803C121.269 5.82748 126.33 8.82121 127.684 9.59195C129.876 10.6845 131.666 12.6641 133.344 13.9189C135.305 15.2441 137.195 17.1236 139.004 18.2459C140.834 19.7036 143.307 20.9962 145.472 21.7616C147.543 22.9758 150.678 23.6059 152.749 24.4659C155.217 25.2827 158.171 26.094 160.565 26.6294C164.758 26.6159 167.003 28.2061 161.374 27.4407C158.368 27.1622 155.268 26.4996 153.019 25.8181C150.478 25.0744 147.349 24.4389 145.472 23.3842C143.158 22.4133 140.654 21.1504 139.004 19.8685C137.019 18.5677 135 16.818 133.344 15.5415C131.618 13.9811 128.974 12.8588 127.145 11.7554C124.628 10.9874 121.964 9.88673 119.329 9.59195C113.752 8.82932 120.759 11.5797 122.293 11.2146C124.85 12.0746 127.381 12.9616 129.57 14.1894C131.576 15.4712 133.799 17.0127 135.23 18.5163C137.235 19.7982 139.173 21.6264 141.16 22.5729C143.697 23.3193 146.032 24.7526 148.167 25.5477C150.661 26.3374 153.655 27.1081 155.983 27.7112C161.732 29.0742 153.535 28.3602 151.94 28.252C148.909 28.0005 145.681 27.4651 143.585 26.6294C140.649 25.8911 135.786 25.4747 140.89 26.8999C142.066 27.6949 149.033 28.2034 146.55 28.7929C143.382 28.6793 140.479 27.8166 138.195 27.1703C136.523 26.524 129.894 24.9311 134.422 26.8999C135.816 27.557 143.051 28.9633 137.117 28.7929C133.965 28.5306 131.773 27.3028 129.031 26.6294C124.215 25.5369 133.382 28.5549 131.187 28.5225C127.903 28.5252 126.07 26.5889 123.91 25.8181C121.058 27.2271 130.662 28.8795 125.528 28.7929C122.795 29.4771 118.624 28.7172 115.825 29.3338C113.028 28.847 108.919 29.1959 106.122 29.0633C102.84 29.0633 99.0785 29.0633 96.1499 29.0633C93.3865 28.5441 89.1268 29.0417 86.7167 28.5225C83.7278 28.2277 79.9065 28.2872 77.5531 27.7112C74.5105 27.4705 71.19 27.0297 68.6589 26.6294C65.6212 26.3833 62.3037 25.9398 59.4953 25.8181C56.7454 25.2854 52.93 25.3367 50.6011 24.7364C47.0071 24.9176 44.3141 24.1928 40.6289 24.4659C37.3354 24.4768 34.1421 23.9061 31.4652 23.6546C28.7253 23.1111 25.1838 22.8893 22.5711 22.5729C19.9018 21.959 16.1191 21.9779 13.9465 21.2207C11.2268 20.6555 8.02382 20.0957 5.8609 19.3277C4.5232 18.6137 -2.94077 17.4373 1.27907 19.3277C4.05377 19.8361 6.23435 21.4235 8.82562 21.7616C11.1454 22.727 14.3836 23.2517 16.6417 23.9251C19.8748 24.1063 22.5722 24.8256 25.8053 25.0068C28.5361 25.5612 31.9515 25.9074 34.969 25.8181C37.5992 26.4726 41.6773 26.1535 44.1327 26.6294C47.6229 26.4212 50.5796 27.2271 53.2963 27.4407C56.2489 27.7707 59.7273 28.0546 62.46 28.252C65.2999 28.6956 68.947 28.8091 71.3541 29.3338C74.4849 29.4852 77.5641 30.1694 80.5178 30.1451C83.2157 30.7319 86.969 30.7401 89.4119 31.2268C92.7408 31.3107 96.0098 31.4567 99.1146 31.7677C102.397 31.7677 106.158 31.7677 109.087 31.7677C112.369 31.7677 116.13 31.7677 119.059 31.7677C121.783 31.8029 127.112 31.7515 127.953 31.7677C127.012 32.6899 120.714 34.3693 124.18 35.0129C126.038 33.7121 129.979 31.1511 126.606 34.4721C122.453 36.9466 125.725 36.906 127.414 34.4721C127.5 32.9279 134.957 31.4378 131.726 32.579C129.002 33.2713 128.143 35.8351 125.797 36.906C123.126 37.9093 120.633 40.7029 124.719 38.2582C127.385 37.6389 128.353 34.8372 130.648 34.2016C132.732 32.6088 137.477 32.0733 132.805 33.9312C130.026 33.7176 129.023 40.1593 131.457 36.6356C132.478 34.3666 134.823 32.9468 137.656 32.8495C141.051 31.5622 144.51 32.4817 139.273 33.1199C136.836 33.9664 134.589 35.4862 133.074 36.906C128.795 39.7077 134.227 37.4333 135.5 36.0947C137.613 34.921 139.896 33.439 142.507 33.1199C146.119 32.6764 138.959 34.6587 138.464 35.2834C136.509 36.6139 133.961 37.8336 132.535 39.3399C129.237 40.6461 129.202 43.5858 132.266 40.1512C134.364 38.964 136.667 37.501 138.464 36.3651C140.679 35.2942 143.071 33.9204 145.202 33.1199C148.68 32.5412 142.179 35.186 141.429 35.5538C139.288 36.8303 137.315 38.2771 135.23 39.6104C133.444 41.1113 131.157 42.5906 129.57 43.9373C125.097 46.4524 129.202 45.8006 130.918 43.9373C132.869 42.6014 135.02 40.9869 136.847 39.8808C138.707 38.4529 140.859 36.8384 142.777 35.8242C144.89 34.6506 147.173 33.1686 149.784 32.8495C153.396 32.4059 146.236 34.3882 145.742 35.0129C143.875 36.4327 141.317 37.6416 139.812 39.0695C137.85 40.5271 135.961 42.0578 134.152 43.6669C132.224 45.0245 129.739 46.3063 127.953 47.453C125.901 48.6862 123.219 49.7706 121.215 50.6982C118.722 51.4906 115.41 51.9422 112.86 52.3208C106.661 52.3154 114.66 53.7217 116.903 53.1322C119.711 52.6562 122.455 51.6366 124.18 50.4278C126.539 49.5029 128.937 48.1318 130.648 46.9121C132.712 45.6898 134.996 44.2078 136.578 42.8556C138.165 41.022 140.451 39.8916 142.238 38.2582C144.431 37.1656 146.666 35.6349 148.706 34.7425C150.883 33.6337 153.665 32.652 156.253 32.3086C155.792 33.1929 151.647 34.2016 150.323 35.2834C147.932 36.1785 146.022 38.0337 144.124 39.0695C142.496 40.73 139.858 41.855 138.464 43.3965C136.844 45.0623 134.348 46.3334 132.535 47.453C130.405 48.6078 128.046 50.0167 126.067 50.9687C124.425 52.2181 120.396 52.9942 120.137 54.2139C123.055 53.8488 125.516 52.5426 127.414 51.5095C129.765 50.5765 131.725 48.7673 133.883 47.9939C135.745 46.5687 138.083 45.1408 139.543 43.6669C141.301 42.1389 143.713 40.784 145.472 39.6104C147.198 38.0499 149.842 36.9276 151.671 35.8242C154.01 34.8777 156.305 33.4066 158.678 32.8495C161.695 31.6758 166.029 31.9462 160.835 33.1199C158.255 33.9555 155.966 35.086 153.827 36.3651C151.765 37.5902 149.544 39.1344 147.898 40.4217C145.625 41.4331 143.948 43.5263 142.238 44.7486C140.418 46.2171 137.995 47.5585 136.039 48.5347C133.901 49.6841 131.288 50.8362 129.301 51.78C125.504 52.7157 124.421 54.2599 129.301 53.1322C131.426 51.972 134.119 50.8984 135.769 49.6165C137.996 48.5591 140.535 47.3313 141.968 45.8304C144.115 44.5593 145.621 42.6446 147.898 41.5034C149.682 39.9998 152.103 38.6557 154.097 37.7173C155.902 36.2353 158.721 35.2888 160.835 34.4721C162.787 33.4011 166.154 32.3086 168.112 32.3086C165.636 33.2497 163.187 34.2179 161.104 35.5538C158.91 36.6464 156.675 38.177 154.636 39.0695C152.996 40.7164 150.535 42.0226 148.976 43.3965C146.852 44.5593 145.345 46.8202 143.316 47.7234C141.485 49.3109 139.298 50.5441 137.117 51.78C134.842 52.7914 131.655 53.3674 129.301 53.9435C128.395 55.0685 134.908 53.7569 136.039 53.4026C138.387 52.4669 140.536 50.847 142.238 49.6165C144.163 48.2562 146.383 46.7066 147.898 45.2895C149.725 43.8292 151.876 42.2147 153.827 41.233C155.381 39.4995 158.154 38.507 159.757 37.1764C161.932 36.0649 164.392 34.7614 166.494 33.9312C168.635 32.6547 171.629 32.2302 174.311 31.4973C178.975 30.5237 180.309 32.1301 175.389 32.3086C172.513 32.7169 169.736 33.704 167.573 34.4721C165.169 35.3537 162.662 36.6139 160.835 37.7173C158.5 38.6692 156.667 40.6029 154.905 41.7738C152.858 43.0124 150.523 44.443 148.976 45.8304C147.248 47.3908 145.012 48.9215 143.585 50.4278C142.114 51.4284 138.058 55.1604 142.238 53.1322C143.945 51.4203 145.652 49.7057 147.359 47.9939C149.491 46.8391 151.047 44.6269 153.288 43.9373C155.38 42.742 157.446 41.041 158.948 39.6104C160.852 38.2284 163.522 37.1332 165.416 36.0947C167.121 35.4375 171.586 33.5932 171.885 34.2016C169.54 35.1428 166.984 36.3516 164.877 37.1764C163.091 38.6773 160.804 40.1566 159.217 41.5034C158.155 43.7318 155.888 45.23 154.366 46.6417C152.273 47.9668 150.731 49.8464 148.437 50.9687C147.613 51.7719 142.254 55.3687 144.394 53.1322C146.293 51.7448 148.211 49.895 149.784 48.5347C151.099 46.5606 153.896 45.5924 155.444 44.2078C159.656 41.3384 154.56 43.9508 153.019 45.0191C150.697 45.9818 149.02 48.075 147.359 49.346C146.298 50.9795 142.724 52.7914 143.585 54.4843C146.148 53.7623 148.498 52.3452 150.054 50.9687C152 49.4975 154.121 48.1994 155.714 46.3713C157.453 44.8244 159.046 42.6473 160.835 41.5034C162.932 40.3135 164.857 38.4718 167.034 37.7173C169.052 36.449 171.849 35.4808 173.772 34.4721C175.082 33.6797 180.36 31.8272 179.97 32.8495C177.478 33.6418 175.189 35.1184 172.963 35.8242C170.892 37.0385 168.415 38.3285 166.764 39.6104C164.832 40.9652 163.029 42.9313 161.374 44.2078C159.394 45.6465 157.424 47.096 155.444 48.5347C153.435 49.8112 151.44 51.5853 149.784 52.8617C147.934 54.0381 144.772 55.4633 143.046 55.5661C145.44 56.7533 148.73 54.7602 150.054 53.673C152.052 52.3857 153.957 50.5224 155.714 49.346C157.567 47.9127 159.757 46.3361 161.643 45.2895C163.09 43.4478 165.342 41.9334 167.034 40.6921C169.251 39.6239 171.277 37.8823 173.232 36.906C177.332 34.0231 173.262 38.5286 171.615 39.0695C169.728 40.4676 168.742 43.2531 166.764 44.2078C165.057 45.7871 163.35 47.8505 161.643 49.0756C159.884 50.6036 157.473 51.9585 155.714 53.1322C151.817 54.9008 157.997 51.3797 157.87 50.1574C160.8 46.8202 159.371 47.2583 157.061 49.6165C155.523 51.3662 153.667 53.2782 151.671 54.2139C150.192 55.6932 146.44 56.6289 145.742 57.7296ZM72.9712 53.673C76.3847 53.673 79.7995 53.673 83.213 53.673C86.7202 53.7677 89.9892 53.6216 92.9157 53.1322C96.0877 52.8888 98.9696 52.356 101.54 51.5095C104.574 51.1282 106.998 50.1357 109.626 49.346C112.25 48.5537 114.601 47.4854 117.172 46.6417C119.429 45.4815 121.775 44.4079 123.91 43.126C126.519 42.3174 127.985 40.3622 130.379 39.3399C131.817 37.7795 125.924 40.1837 125.258 41.233C122.933 42.3255 120.513 43.3234 118.251 44.4782C115.817 45.4626 113.562 46.6255 110.973 47.453C108.697 48.5942 105.754 49.0675 103.157 49.8869C100.317 50.4629 97.7215 51.2851 94.8023 51.78C91.7899 52.1829 88.4344 52.2424 85.6387 52.8617C82.2252 52.8617 78.8104 52.8617 75.3969 52.8617C70.6623 53.0618 70.7046 51.1796 70.5456 50.6982C69.6815 48.7808 68.5463 54.4681 72.9712 53.673ZM109.087 52.0504C111.897 51.6069 119.225 50.4224 117.981 49.6165C111.851 50.9606 121.333 47.4232 122.024 46.1008C127.797 42.1552 120.068 45.8439 118.52 47.453C115.562 49.173 111.777 50.0627 109.087 52.0504ZM61.6514 48.5347C66.0373 48.359 71.5905 48.9539 74.8579 47.9939C81.4951 44.8784 75.9144 46.8824 71.6236 47.1826C67.2378 47.0068 61.6846 47.6017 58.4172 46.6417C53.9669 46.5308 50.448 45.084 47.0974 44.2078C43.809 42.9313 40.2667 41.5088 37.3947 40.1512C34.3181 38.6611 30.6812 37.3333 27.9615 35.8242C24.7971 34.4234 21.1076 33.1469 17.7198 32.3086C14.3055 31.1592 10.9187 29.5799 8.01706 28.252C11.7936 28.3548 2.91532 26.267 2.62667 24.1955C0.879993 17.0993 -0.605247 21.9752 2.35715 25.2772C4.60863 27.5949 7.47721 29.6935 10.9818 30.4155C13.7174 32.2464 17.9391 32.9874 20.954 34.2016C24.4718 35.2482 27.7009 36.9844 30.6567 38.2582C33.7074 39.7726 37.1885 41.2573 40.0899 42.5851C43.1788 44.0617 46.7128 45.4923 50.0621 46.3713C53.7017 47.2961 57.6119 48.3481 61.6514 48.5347ZM169.19 46.3713C172.53 44.4944 174.711 41.4547 177.814 39.3399C179.612 36.8546 184.78 34.326 185.091 32.8495C183.247 34.0989 180.119 36.5112 177.006 38.799C174.508 41.4169 171.123 43.5182 169.19 46.3713ZM174.311 39.8808C176.117 38.6287 177.848 37.3008 179.431 35.8242C177.377 36.8276 175.644 38.1554 174.311 39.8808ZM96.689 29.8747C101.249 29.8747 106.21 29.8747 110.434 29.8747C114.926 29.8747 119.419 29.8747 123.91 29.8747C127.854 29.3257 132.788 29.7665 137.117 29.6042C142.485 29.5555 144.343 29.3203 149.515 29.6042C154.607 30.164 158.22 28.4954 161.643 28.5225C166.434 28.8227 170.33 28.225 174.311 27.7112C178.302 27.2082 181.977 26.3887 185.63 25.5477C189.242 24.6634 193.127 24.0549 197.759 24.1955C199.771 23.8764 208.758 21.383 206.653 23.6546C205.579 27.0838 202.714 28.7172 198.298 28.7929C194.264 29.2527 190.304 29.7881 186.169 30.1451C181.88 30.5075 177.409 30.3966 173.502 30.4155C168.981 30.4561 165.151 31.5892 160.565 31.2268C156.074 31.2268 151.581 31.2268 147.089 31.2268C142.598 31.2268 138.105 31.2268 133.613 31.2268C128.574 31.6054 127.046 30.6914 121.485 30.9564C116.924 30.9564 111.964 30.9564 107.739 30.9564C102.995 31.2106 99.0726 30.6373 94.5328 30.686C90.3738 30.3533 86.1214 30.1099 82.1349 29.6042C77.9355 29.3121 73.8887 28.8632 70.0065 28.252C65.7861 27.9113 61.2358 27.5002 57.6086 26.8999C53.0521 26.9648 49.519 26.002 45.2107 25.8181C40.8761 25.6613 36.6128 25.4314 32.5433 25.0068C28.1882 24.8689 24.5801 23.9819 20.415 23.6546C17.2001 23.1733 10.847 22.2457 10.7123 21.2207C14.2446 22.1835 18.1825 22.7406 22.3016 23.1138C26.0692 23.8412 30.2804 24.1225 34.1604 24.7364C38.2164 25.1745 42.4209 25.4638 47.0974 25.2772C51.1019 25.8343 55.7204 26.1778 59.7648 26.359C63.6222 26.9945 67.8523 27.2595 71.6236 27.9816C75.8567 28.2412 79.5739 29.0201 84.0215 29.0633C87.7695 29.8098 92.6017 29.469 96.689 29.8747ZM147.628 26.8999C148.619 25.7018 141.157 24.2577 139.004 22.5729C137.809 23.9737 144.864 25.8289 147.628 26.8999ZM170.537 26.359C172.948 27.7626 161.806 26.3211 159.487 25.5477C154.972 24.4903 151.495 22.389 147.089 21.2207C143.096 19.6387 139.647 17.5103 136.578 15.0007C133.362 12.7371 130.59 9.67309 126.875 8.23977C124.664 6.53062 134.113 9.87321 137.117 9.86239C141.192 11.3606 144.439 13.6945 147.628 16.0824C150.202 19.0897 153.459 21.41 157.6 22.8433C161.342 24.5795 165.646 26.1075 170.537 26.359ZM135.5 24.4659C134.767 21.2261 131.164 17.8186 128.492 15.5415C127.752 14.8438 127.202 13.9514 126.067 13.6485C119.882 10.9333 127.19 14.8844 128.223 16.0824C129.269 17.7429 122.311 12.3207 119.059 12.5668C118.654 13.6052 126.332 15.0953 128.223 17.4346C130.838 18.7543 137.971 25.545 131.187 20.6798C127.757 18.5326 124.462 16.2501 120.676 14.4598C117.056 12.4207 112.713 10.7575 107.739 10.4033C102.987 9.58384 97.504 9.4946 91.8376 9.59195C86.1852 9.59195 80.1847 9.59195 74.8579 9.59195C69.8583 10.2464 63.4798 9.8678 59.2258 10.9441C48.9961 11.9745 63.9601 11.8663 65.9637 10.9441C71.7536 11.1659 76.1338 9.97056 82.1349 10.4033C87.8139 10.3762 93.8789 10.3113 98.8451 10.6737C104.191 10.8982 109.229 11.4336 113.399 12.8372C117.222 14.6734 121.13 16.772 124.18 19.0572C126.936 21.8806 131.67 22.7216 135.5 24.4659ZM184.283 24.1955C191.105 24.0359 182.438 25.9155 180.51 24.7364C178.001 23.7763 174.394 23.4518 172.693 22.032C169.916 21.2126 168.052 19.4764 165.955 17.9755C164.217 16.2447 162.368 14.1542 160.565 12.8372C157.019 8.8158 161.395 12.4045 162.991 13.6485C164.876 15.2332 167.26 16.7856 169.19 17.9755C171.63 19.1329 173.756 20.6068 176.467 21.4911C178.773 22.654 181.716 23.6465 184.283 24.1955ZM187.787 22.8433C187.032 23.2598 181.959 22.6026 180.24 21.7616C177.755 20.8286 176.065 19.0978 174.041 17.705C172.203 16.1257 170.842 14.0623 168.651 12.8372C167.135 10.9333 164.528 10.122 162.452 8.78065C163.435 8.1343 167.106 10.1977 168.92 10.9441C170.996 12.2855 173.015 13.6864 174.58 15.5415C176.167 17.3751 178.454 18.5055 180.24 20.139C182.237 21.5615 185.121 22.0915 187.787 22.8433ZM146.011 19.5981C145.94 18.1918 142.47 16.8532 141.429 15.0007C139.561 13.4511 138.516 11.0712 135.5 10.6737C135.88 11.7717 139.03 13.4294 140.351 15.0007C142.148 16.6233 143.416 18.776 146.011 19.5981ZM157.6 18.7868C157.869 17.5915 154.529 16.0337 153.558 15.0007C153.289 16.196 156.628 17.7537 157.6 18.7868ZM0.470513 17.705C2.6378 15.1467 7.5396 14.5761 10.7123 14.4598C6.44301 12.9345 1.41216 14.2867 0.470513 17.705ZM43.5936 15.5415C50.0006 15.9824 46.6826 14.8925 43.5936 13.9189C40.5483 13.5484 37.5952 13.086 34.969 12.2963C32.2676 11.5824 29.4204 11.0117 26.0749 10.9441C23.0199 10.3302 19.7306 11.1524 16.6417 11.2146C12.1197 11.3606 12.8846 12.299 17.4502 12.0259C20.4387 11.8609 24.0039 11.1875 26.8834 11.7554C29.8287 12.226 32.49 12.9805 35.508 13.3781C38.0437 14.2597 40.8025 14.9168 43.5936 15.5415ZM58.1477 14.7302C60.1038 13.6377 53.5524 11.9475 51.4097 11.2146C47.7464 10.6629 42.5217 10.836 39.8204 11.7554C35.8967 12.9481 45.7099 11.5283 48.1755 12.0259C52.0935 12.3044 55.108 13.9108 58.1477 14.7302ZM19.8759 14.4598C25.6919 14.2218 20.9737 13.562 18.2588 13.3781C15.2453 13.2915 12.6089 12.3342 9.63417 12.5668C4.3406 12.848 7.39215 14.0893 11.2513 13.6485C13.2835 14.7194 17.795 13.7972 19.8759 14.4598ZM115.286 10.9441C114.681 9.58114 110.353 8.35606 108.009 7.6989C108.266 9.41076 113.121 10.1085 115.286 10.9441Z"
        fill="#222222" />
</svg>