<svg xmlns="http://www.w3.org/2000/svg" width="214" height="91" viewBox="0 0 214 91" fill="none">
    <path
        d="M213.507 3.74457C210.236 5.65227 207.237 8.77379 204.131 11.4111C201.182 14.7501 198.177 17.8407 195.151 20.8389C192.194 24.1405 189.272 27.6005 186.47 31.5877C183.553 35.4965 180.234 39.3861 180.728 43.0618C180.116 46.901 180.073 50.6132 180.029 54.3244C180.174 57.993 179.637 61.8164 179.769 65.4878C179.236 69.1942 183.594 59.0059 184.346 57.0527C185.005 53.3024 185.37 49.2579 185.315 45.9606C185.168 42.6909 183.887 38.2383 185.773 35.6779C185.59 39.4203 186.167 42.9927 186.834 46.5434C187.953 48.482 183.912 57.2606 186.42 54.9656C188.085 50.8888 188.309 47.1361 187.56 43.6037C187.552 39.9041 185.98 36.5562 187.819 32.4403C189.58 27.9513 193.226 24.7326 196.06 21.7908C199.012 18.4688 202.004 15.3167 205.139 12.8033C207.687 9.38274 211.945 7.29822 213.507 3.74457ZM208.111 0.334149C203.475 0.599516 199.656 5.84157 195.922 8.86615C192.129 12.5646 188.802 18.3337 185.393 23.7332C182.6 28.3967 178.898 36.4758 174.935 37.89C170.582 39.1016 165.535 37.2426 160.435 35.1442C155.134 32.4615 149.39 29.1646 144.672 27.8247C141.827 26.8659 131.384 25.5515 134.29 26.9266C139.215 28.2478 143.808 28.0954 148.989 30.553C154.13 32.8344 159.505 36.1497 164.581 38.1424C167.892 40.8738 179.713 37.8777 171.866 42.7464C167.437 43.6224 162.516 42.324 157.564 40.8813C152.536 39.4081 146.656 35.5104 141.503 32.2408C137.006 28.6856 131.077 25.8977 127.046 27.6344C130.985 27.5193 136.976 29.9641 142.071 33.7322C146.742 36.807 151.69 40.3175 156.882 41.9605C161.419 42.5586 170.584 45.0761 160.461 43.4671C155.75 43.0952 150.747 41.4287 145.762 39.8407C140.286 38.2706 134.95 32.64 130.042 30.6606C125.191 27.2638 121.47 31.1936 117.174 33.0993C108.895 39.411 115.96 36.6772 120.042 34.5347C124.689 34.6221 129.995 37.633 135.138 39.9225C140.309 42.0271 145.759 44.0215 150.206 44.1598C157.839 44.7145 144.468 42.8072 142.168 41.345C137.181 39.7442 131.906 36.8743 126.874 35.0766C120.487 32.5004 115.624 34.2228 124.12 31.0705C128.124 29.2168 135.274 35.1963 139.343 38.049C144.795 41.7101 149.532 42.1948 154.538 43.8771C156.957 45.6621 147.732 44.8971 144.454 44.2999C139.596 43.2737 134.475 41.0881 129.358 38.9122C125.089 36.4264 117.031 34.5971 116.647 36.9197C121.306 37.0635 126.289 38.638 131.544 41.4268C136.659 43.5903 141.686 45.3621 146.342 45.4936C151.166 46.3679 155.708 45.9878 160.247 45.5975C162.889 47.1107 173.894 42.8142 169.82 45.984C165.765 48.5196 161.384 49.6159 156.808 49.843C151.943 49.0906 146.96 49.1721 142.038 46.9267C140.949 46.955 139.122 46.0676 138.289 45.6898C130.637 41.6909 134.441 45.8476 139.297 47.082C144.466 49.1778 149.72 50.2971 154.167 50.4387C159.041 51.5389 163.446 50.5488 167.674 48.7813C164.743 53.0293 160.306 55.8657 155.6 54.7426C150.942 54.605 146.055 53.4549 140.802 50.6758C134.482 47.6215 131.272 42.6469 125.764 40.4165C123.295 38.6354 109.7 35.6549 118.464 38.8235C123.707 40.63 129.907 45.3424 133.403 48.6425C133.999 49.6032 136.174 50.7406 137.009 51.2996C144.961 55.9792 134.198 51.7629 132.28 49.8209C128.05 46.3414 121.761 42.0597 116.802 39.6609C110.968 38.7034 109.535 33.1254 104.435 29.9564C102.041 25.8483 88.1947 23.5042 98.4559 28.0655C102.196 31.8487 106.046 35.6086 108.92 39.5874C112.186 43.5469 114.577 48.009 117.011 51.8754C119.879 55.8556 122.672 59.8538 125.714 63.7944C127.109 64.7134 127.685 65.8179 128.71 66.8206C131.027 70.128 122.9 62.6883 122.647 61.4784C119.623 57.5336 116.743 53.555 113.944 49.5594C111.381 45.4414 108.958 40.9863 106.293 37.172C101.817 32.8946 109.376 43.1615 109.941 45.141C112.476 49.196 114.986 53.258 118.203 57.1593C125.829 65.1995 117.391 58.509 114.426 54.772C110.732 50.9087 108.086 46.5041 105.894 42.5832C103.514 38.4931 102.854 34.0139 99.3927 30.1678C96.2521 25.2839 89.9726 25.6866 85.2206 22.7209C78.556 16.7153 87.6473 27.6064 87.2494 29.6668C89.3269 33.8944 90.4916 38.6331 90.9378 42.9477C91.6426 47.4153 93.1978 51.6927 95.2372 55.8594C96.8142 60.1305 100.606 63.9035 104.82 67.5799C112.245 71.5895 115.922 75.4877 106.297 70.0232C100.143 66.7148 96.7737 62.473 94.2421 58.6287C91.8338 54.5451 91.3515 50.0258 89.0621 45.9154C87.9738 41.4651 87.1091 36.6584 85.814 32.5353C84.7698 28.1442 82.8173 23.9564 80.1937 19.9214C79.05 17.3065 65.9387 7.98369 73.4487 15.6583C77.0705 19.4683 77.6791 23.9591 78.6286 28.3716C79.6213 32.7743 80.6143 37.1784 81.607 41.5812C82.5931 45.9854 83.28 50.4585 85.9063 54.493C87.6748 58.7902 92.1 62.7938 96.1996 66.2846C91.1843 64.2642 87.6968 59.5261 85.494 55.7427C82.5847 51.7026 80.8974 47.0817 79.604 42.9582C77.521 38.8013 77.5201 34.1735 77.0659 29.6493C76.235 27.4017 75.2895 16.1641 74.271 20.3313C75.4486 24.6924 75.9933 29.1976 76.3687 33.7395C77.0831 38.205 76.9638 42.8599 78.0261 47.247C78.4926 51.156 82.5491 56.4742 83.3485 58.54C79.6495 54.6782 78.142 50.0165 76.1375 46.0533C74.2311 41.8566 72.671 37.5803 71.8381 33.1415C70.4382 28.7612 69.7016 23.9259 66.8287 20.1585C67.3282 17.3807 53.9099 9.53695 58.4369 13.7219C64.4241 17.068 66.865 21.5188 68.7302 25.5136C70.087 29.8343 71.1839 34.2149 72.5892 38.5247C73.197 43.0142 75.4075 47.1438 77.7691 51.2379C79.4641 55.4823 82.5253 59.4201 87.3523 62.9583C92.1141 67.2354 98.372 69.7116 102.774 70.8175C107.878 72.933 112.696 73.7779 117.473 74.4439C122.217 74.9651 126.872 75.083 131.576 75.4285C135.961 74.3587 140.532 74.1055 145.878 77.2936C150.416 76.5956 155.929 78.8637 159.357 74.4858C163.414 73.9605 162.612 65.1521 165.34 62.0318C164.019 66.2499 164.48 72.7212 160.095 75.7075C151.854 78.9256 164.007 76.9175 165.919 74.8572C170.536 72.1108 172.444 65.1268 174.076 60.7564C173.436 59.8054 173.992 58.0522 173.551 57.4043C173.772 56.4292 173.731 55.513 173.396 54.6631C175.65 48.5523 171.34 55.5071 172.742 56.8928C173.172 61.0292 171.438 67.6695 167.425 71.2786C170.357 65.9909 171.278 61.1554 171.492 56.4805C169.95 58.2648 169.719 65.5908 167.298 69.6878C166 70.6052 169.389 61.2763 168.878 58.2266C169.249 53.3004 173.523 47.7918 177.305 44.2963C182.052 36.1784 172.495 48.2057 170.713 49.9469C166.561 53.6006 164.158 59.7661 162.655 64.4881C163.721 67.4462 152.507 80.0614 157.98 72.4828C160.465 67.6129 159.975 61.5867 164.177 57.8984C169.417 50.9246 159.074 61.3653 157.188 61.7878C151.547 63.9106 153.249 70.8166 149.273 74.9086C148.796 75.4679 155.417 59.3697 150.283 69.1284C149.236 76.8644 143.074 76.1808 138.053 72.3485C132.674 69.8402 128.429 65.4612 125.487 61.7634C122.663 57.7042 119.467 53.4235 116.955 49.5746C114.216 45.5655 112.024 41.4319 108.693 37.5563C108.505 35.2977 96.2922 26.0772 102.475 29.4728C106.812 33.1215 110.511 36.9156 112.939 40.9947C115.788 45.0484 118.467 49.4456 121.471 53.1835C124.979 57.0191 127.648 61.0453 131.494 64.8047C133.583 67.9506 140.751 74.0312 144.885 72.8904C149.454 66.5888 148.563 64.4442 142.075 66.5835C140.341 68.5177 125.251 59.8842 133.668 63.1579C138.77 65.2693 143.459 65.5393 148.069 65.4634C152.399 64.1479 156.345 61.1229 160.186 57.6415C164.064 54.3191 167.908 50.8427 171.51 46.297C175.25 42.0587 179.053 36.7466 182.308 31.6005C184.837 26.6694 188.849 20.4288 192.199 15.9522C195.599 10.5131 199.387 6.7862 203.323 3.72709C205.062 -1.74928 217.512 8.20767 208.111 0.334149ZM182.945 39.5544C183.557 39.3152 183.544 47.0826 183.638 49.809C184.152 53.857 182.648 58.3614 181.034 62.889C180.435 63.1252 181.764 55.0612 181.222 52.4358C181.211 48.2744 181.771 43.9829 182.945 39.5544ZM175.347 36.6403C172.214 36.4215 168.889 35.3587 165.449 33.7824C162.183 32.4884 158.337 30.3976 155.423 29.3336C151.863 27.2232 148.613 26.4938 145.326 25.595C142.17 24.7898 138.769 24.6721 136.293 25.5495C139.409 25.6891 142.578 26.0619 145.795 26.6462C148.973 27.5523 152.664 28.9513 155.622 30.2143C159.111 32.0082 162.586 33.7376 166.017 35.2738C169.194 36.1742 172.993 38.0563 175.347 36.6403ZM178.781 46.7397C176.961 51.0392 177.748 55.938 176.817 60.601C176.619 65.1853 173.755 70.6835 172.48 75.2286C176.492 70.4351 177.71 65.0842 177.967 60.573C178.638 55.882 178.692 51.0177 178.781 46.7397ZM148.574 38.9752C144.831 36.2612 141.007 34.9181 137.612 32.4241C134.081 30.6509 130.122 28.7106 127.344 28.9553C130.572 29.3843 134.714 32.1344 137.91 33.7451C141.359 35.1573 145.712 38.8457 148.574 38.9752ZM167.6 56.6639C171.01 49.9459 166.999 60.4773 167.542 61.5354C166.973 64.9518 166.287 68.7745 165.053 72.0447C161.079 78.6879 165.383 68.4369 165.112 67.1732C165.951 63.6959 166.204 59.9707 167.6 56.6639ZM174.473 62.5177C173.356 64.0761 173.134 67.4433 172.951 69.1073C174.088 67.5442 174.822 64.0617 174.473 62.5177ZM139.58 51.414C142.416 52.5002 146.826 54.5746 150.217 55.4936C153.689 55.8466 157.214 56.4295 160.499 55.9514C157.496 57.6807 154.169 57.975 150.514 56.8146C147.081 55.7042 142.84 54.3808 139.58 51.414ZM158.835 63.9613C161.834 59.0124 157.275 72.2708 155.366 74.2289C150.606 78.8028 159.057 67.1809 158.835 63.9613ZM156.463 64.7275C159.369 60.5588 154.848 70.1689 154.429 72.1265C152.622 76.0477 154.906 66.9421 156.463 64.7275ZM113.962 39.3759C114.823 39.5099 120.856 42.8929 124.016 44.9751C127.413 47.4971 130.833 50.394 134.736 52.5061C138.443 54.3633 142.27 55.0691 145.544 56.3159C149.108 57.543 153.072 58.8561 155.954 58.3645C153.753 60.0968 149.5 58.7194 146.111 57.8074C142.556 56.6255 138.627 55.464 135.304 53.9975C131.662 52.2601 127.029 49.3317 124.242 47.0062C121.617 44.3101 115.56 42.0076 113.962 39.3759ZM95.4449 28.0503C100.033 30.1669 101.413 35.3806 103.068 39.2872C104.897 43.4148 107.831 47.6054 110.18 51.3335C113.217 55.2753 117.076 59.0332 121.524 62.6569C124.775 66.1716 131.06 70.4188 135.142 72.7737C134.364 74.3621 125.678 69.6059 122.148 66.4492C117.722 62.9074 114.51 58.7795 111.514 55.1971C108.881 51.251 106.194 47.0046 104.402 43.1508C102.254 39.0953 100.422 34.6561 98.171 30.906C98.6718 33.944 101.785 38.7668 103.152 42.7385C105.122 46.8343 107.448 51.1619 109.824 54.8841C113.239 58.7408 116.129 62.7172 120.288 66.406C121.521 69.0983 136.526 75.9111 128.069 73.2117C122.893 71.5243 117.453 67.6832 113.499 64.0036C109.512 60.3628 105.746 56.3597 104.626 52.3544C102.758 48.2356 102.816 43.3704 100.597 39.6131C99.7007 35.8067 95.9484 30.384 95.4449 28.0503ZM153.849 66.4736C156.802 61.4439 152.908 72.4505 152.085 74.0432C147.959 77.7175 154.495 69.0139 153.849 66.4736ZM115.907 42.8705C117.213 43.9068 123.114 47.1095 124.909 48.938C128.341 51.163 131.769 53.3698 135.062 54.9775C138.32 56.4308 141.524 57.6416 144.62 58.375C146.853 59.7959 152.64 60.142 152.217 61.2891C149.24 61.276 145.601 60.1041 142.787 59.4823C139.796 59.2107 136.556 57.8415 133.329 56.525C129.847 54.3799 126.382 52.2303 123.517 49.9459C121.016 47.5796 117.722 45.3913 115.907 42.8705ZM90.5453 26.8415C92.9817 26.0967 96.7012 32.2685 97.6442 34.7264C99.0718 38.3192 100.766 42.1951 101.717 45.6071C102.82 49.2731 102.756 53.5452 105.349 56.587C107.35 59.9914 108.495 63.5899 111.354 66.8008C109.902 67.6018 105.317 61.0859 103.815 59.0152C101.522 55.6175 99.8837 51.7288 98.8613 48.3331C98.3699 44.5292 96.429 40.709 95.6692 37.2538C94.2619 33.7157 93.5986 30.0086 90.5453 26.8415ZM86.4271 24.9938C90.1945 25.5811 92.8395 32.2586 94.1217 35.5206C95.4971 39.9062 96.9665 44.5763 98.2505 48.7022C99.0242 53.2237 101.147 57.7464 104.141 61.4866C106.756 65.5236 110.569 69.2918 115.925 72.7107C111.525 72.3923 105.776 66.3042 103.387 63.276C100.704 59.185 97.6968 54.8616 96.1762 50.7893C94.5464 46.4608 93.0135 41.8053 92.0474 37.6077C90.2652 33.383 89.0428 29.0306 86.4271 24.9938ZM150.568 66.2879C148.346 66.814 147.052 73.3942 144.572 74.5805C147.931 74.9458 148.945 68.8066 150.568 66.2879ZM77.7223 20.2472C80.2076 21.8958 82.5555 26.4891 83.6988 29.3106C85.6919 32.5624 84.9691 36.4277 86.9621 39.6797C87.4946 43.3178 88.3916 47.2255 90.0549 50.3187C90.6438 53.887 91.5673 57.3814 93.7585 60.5885C91.3492 58.923 89.3216 54.2573 88.2224 51.4259C86.3518 48.1462 85.4529 44.6466 84.5187 41.156C83.6199 37.6006 82.9789 33.6349 81.8662 30.4178C81.6102 26.7744 79.2392 23.6066 77.7223 20.2472ZM120.307 49.0501C123.573 50.8285 129.789 56.9688 135.146 58.4288C140.506 60.3137 145.67 61.3192 150.825 62.297C145.878 62.5662 140.232 61.0327 135.174 59.5792C130.022 57.5694 122.854 53.0015 120.307 49.0501ZM78.5165 23.7698C80.5068 26.0457 80.9104 31.4493 82.1489 34.7498C83.0423 38.7122 83.936 42.676 84.8294 46.6384C86.1218 50.5109 87.9159 54.2717 90.5922 57.8321C93.2781 61.3904 97.214 64.6683 100.318 68.1323C96.5339 66.2611 92.6111 61.6507 89.6403 58.7408C86.9101 55.1923 85.3667 51.3752 83.8775 47.5471C82.9841 43.5847 82.0904 39.6209 81.197 35.6585C80.3036 31.696 79.4099 27.7322 78.5165 23.7698ZM146.605 67.1814C143.445 68.8976 139.842 68.6549 135.981 67.2632C128.204 61.9759 138.764 68.0085 140.583 67.1511C144.09 67.587 149.737 64.9785 144.417 71.8393C136.982 72.0599 145.029 72.3241 146.605 67.1814ZM125.518 55.7414C127.652 57.11 134.702 61.3002 138.142 61.455C142.481 62.2295 147.025 63.9099 151.024 63.1776C147.231 65.1051 142.394 63.8521 138.27 63.0457C134.559 62.7429 127.981 59.2526 125.518 55.7414ZM59.2743 15.3839C47.3057 9.22513 59.124 17.4539 61.0053 21.0088C63.8542 22.8743 65.903 36.3653 63.2046 27.6849C61.2882 23.1091 58.5756 18.4202 52.2724 15.1118C50.8029 14.1351 49.0078 14.0558 47.8844 13.0936C40.8097 10.2997 42.4955 13.5616 47.7979 16.8147C52.6181 20.8172 53.599 25.6867 55.4773 30.3525C56.6293 35.1006 57.5669 40.1897 58.9241 44.6133C59.9259 49.3953 63.5481 53.8791 67.2143 57.782C62.8308 55.201 59.298 49.8589 57.8017 45.7918C55.0616 41.3203 55.5021 36.1303 54.0851 31.3605C53.1837 26.9746 51.8652 20.8741 48.6354 18.4767C51.3809 22.8655 52.1137 28.0008 53.4031 32.4397C54.6117 37.1752 54.4522 42.5115 56.8498 46.7004C55.8124 49.6011 66.8723 59.2789 60.6247 56.2602C55.5095 55.844 48.4326 49.7823 44.8058 46.6398C40.7791 42.5396 37.0382 38.0827 33.8736 34.0667C30.0998 29.5264 24.4108 26.2989 18.6375 22.9268C7.99988 18.7226 23.1906 27.957 25.8076 30.1015C30.2101 34.1168 34.2035 38.5169 36.7398 42.6746C37.7691 45.7869 48.4298 53.2743 46.1957 52.8042C40.3954 49.2897 35.0129 48.9262 29.4529 45.2429C24.2384 41.5734 21.605 36.4474 15.5378 33.8052C3.04192 27.4113 15.6154 34.7427 18.1213 38.081C27.0128 45.7427 13.6448 38.3709 10.5086 38.178C8.75001 39.8463 19.7839 41.2005 23.2324 44.332C35.3641 50.4991 23.7928 46.1663 18.9716 43.9045C13.5469 42.0557 8.58596 43.5606 2.92385 39.4254C-3.0863 38.203 11.7489 45.4759 13.3899 43.7749C18.4005 43.7859 24.7618 48.4918 29.6363 49.1346C30.8183 48.8373 32.8791 50.0937 33.7265 49.8318C40.1886 52.6923 29.1637 49.0281 27.8038 50.2418C23.0479 51.3595 18.6412 55.3238 14.4365 57.6514C12.3068 59.4725 0.112385 60.298 4.77748 60.986C9.62279 60.2651 14.6777 59.1767 18.7404 56.2183C23.0253 53.3731 27.8241 50.218 32.4336 51.2801C27.4538 51.4055 23.1636 55.8845 18.967 58.2494C14.708 61.5708 9.39059 61.4957 4.80551 62.1364C5.97381 63.6477 14.0063 62.4756 17.2618 60.9474C22.1016 59.8409 26.2557 55.6871 31.1967 55.0293C36.0199 54.4616 24.0926 58.3222 22.5737 60.9065C17.9859 62.7707 13.288 65.4413 8.61074 65.6742C13.0866 66.5049 18.2535 64.0529 22.3319 61.8864C26.7863 59.0706 31.3026 56.5219 35.969 54.6473C43.123 53.5241 29.8306 57.4847 28.6669 60.2267C24.3705 63.3822 19.9036 67.0781 15.2997 67.6363C13.411 68.7266 24.0409 68.2903 26.1372 65.4241C30.6472 63.2163 35.348 60.5566 39.4052 57.5742C41.8478 54.6676 31.8856 61.3405 29.6037 62.329C28.4958 62.9552 26.9645 64.0471 26.1091 64.2737C20.4727 68.3157 21.1851 65.6389 26.3509 63.2938C30.6537 60.1658 35.0845 56.3096 39.6189 55.4439C41.4866 53.5097 56.008 54.7601 47.0611 55.6167C42.1057 54.9484 38.5287 60.0722 34.2335 63.3673C33.0001 67.8368 19.3681 69.1935 27.0307 69.387C31.4506 69.0339 35.4032 63.3983 39.6598 60.7558C43.9832 57.7201 48.8797 55.9294 53.6227 55.9881C48.9614 57.5249 44.0114 59.0787 40.3547 63.838C36.3782 68.4122 31.4349 69.9954 26.9875 71.2476C17.2237 71.0959 32.1982 73.7839 33.7196 71.3492C38.609 70.4628 42.7786 66.3777 47.1581 63.2295C50.8372 60.3356 60.3493 55.5847 50.6958 59.4242C46.3683 62.4426 41.9328 66.2781 37.825 69.0354C36.6434 69.3361 35.0778 70.2744 34.2311 70.5398C27.035 72.029 35.8169 69.317 37.6976 67.4447C42.0945 64.7337 46.4196 60.4085 50.6678 58.2738C53.4157 57.0451 63.5758 57.4669 61.5614 58.3625C56.5742 58.4554 52.3147 63.0716 48.1941 65.7721C43.8884 68.8862 39.2561 71.849 34.7275 72.7414C33.4341 72.5458 31.7579 72.9936 30.8359 72.9248C23.787 72.3889 25.6343 73.5583 31.3043 73.9759C36.3484 74.137 41.0906 71.6605 45.2672 69.2083C49.696 66.6402 53.9792 62.1292 58.3366 60.4777C59.3841 59.5826 61.0851 59.2445 62.0297 59.4137C69.4143 57.7596 61.1829 60.5677 58.9043 61.9692C54.444 64.759 50.1869 68.4562 45.565 70.5292C43.0296 73.3961 33.1661 75.3781 34.9822 75.9229C39.8365 75.2421 44.537 72.5806 48.6473 69.8343C53.2501 68.0377 57.5222 63.4767 61.9153 61.9844C65.3515 58.3732 76.7207 60.9299 65.9774 61.5312C61.3622 63.2723 56.963 67.269 52.8087 69.8214C48.4877 72.8677 43.7141 75.2046 39.1436 75.91C34.4592 77.3447 28.7617 75.584 23.3937 72.7519C20.7657 74.0776 32.9096 79.1752 35.3793 77.6842C40.0723 76.2878 45.6497 77.5157 49.7393 74.6778C59.654 70.4041 50.8888 75.9412 46.7844 76.9635C42.1885 78.7917 37.1164 79.8038 32.4243 79.9699C23.4167 76.6475 33.3717 85.3321 38.5153 86.4626C43.962 88.4091 49.5337 89.6119 54.2652 89.6207C59.4932 90.5967 64.8758 90.9607 69.4195 90.1368C74.1836 89.0546 79.4763 89.022 83.7796 87.1305C88.3856 85.3484 93.1621 83.0242 97.3454 80.6015C103.387 78.0187 91.3441 85.7585 89.7023 86.7205C87.3846 88.5398 74.2317 90.6375 83.7644 90.1415C88.6333 89.5249 94.0822 90.183 98.7202 89.777C103.827 89.8532 108.598 88.4355 113.449 87.3814C118.056 85.6024 123.136 84.6248 127.214 81.7331C131.629 79.1023 136.479 77.1082 141.375 77.8461C139.042 75.4778 132.129 78.0612 127.883 76.4925C122.678 75.6172 117.501 76.1647 112.431 74.6554C107.578 75.341 100.831 68.9266 97.1772 73.6989C92.8691 76.8023 88.3417 80.2313 84.1078 82.4294C79.6819 85.0107 74.8011 86.8709 70.3434 88.0777C65.3318 88.4225 60.6399 90.1922 55.2171 88.712C50.148 88.4404 44.5459 87.1024 39.3679 85.1136C37.9948 84.5644 36.0381 83.7682 34.9799 83.0953C26.1555 79.2238 33.4017 80.6567 36.6419 82.2579C41.6833 82.4071 46.7542 81.3885 51.2005 80.1322C55.9655 78.6941 60.5029 76.2399 64.9368 73.3334C69.3592 70.7367 73.3972 65.137 77.7084 63.2819C79.0098 63.5127 80.8493 63.7888 81.8979 64.4195C89.8499 66.2817 79.9723 64.135 78.1336 66.1936C73.7961 69.1679 69.4254 73.291 65.1634 75.3645C60.6602 77.963 56.0865 80.2567 51.3278 81.7229C49.6148 83.9697 35.7546 83.5656 42.9897 84.7597C47.9976 84.7595 52.7265 82.2245 57.2505 81.3129C62.0379 80.3353 66.7799 77.8579 71.0149 75.6646C75.1855 71.9513 80.2327 70.8286 84.5807 69.1357C90.6842 69.1752 95.2584 68.0074 86.4997 64.3073C81.257 63.8815 74.6262 57.8344 71.5614 54.4883C67.8798 50.3106 65.0651 45.6447 63.7115 41.2203C62.3849 36.4302 60.4886 31.7671 58.674 27.0869C57.5049 22.3426 54.3921 17.744 47.7419 14.5138C52.7569 15.1971 59.1469 21.0942 60.9189 24.7299C63.4502 29.1673 64.2981 34.2764 65.6865 38.6929C67.5532 43.2799 69.9473 48.0406 72.6558 52.1594C73.1585 53.2954 74.9374 54.6715 75.0408 55.5547C75.278 57.1692 86.3789 64.996 80.6353 59.8457C76.0563 55.8703 73.0254 51.2532 70.5838 47.0741C68.5631 42.5219 66.0271 37.7932 65.8161 33.1112C65.2451 28.1507 64.8173 23.1564 60.7787 18.9777C58.6845 14.4987 67.2802 25.3584 67.0962 27.5015C68.1579 32.2699 70.5043 37.0412 70.9832 41.663C72.5604 46.3155 73.7773 51.3414 77.5122 55.2288C78.2791 56.3052 79.3179 57.8482 80.3375 58.5248C87.3048 64.7701 81.576 58.842 78.8612 56.0814C75.9124 51.7382 73.3952 47.0054 72.3322 42.5156C71.4779 37.7004 69.5769 32.8285 68.4452 28.3541C66.7954 23.718 64.077 19.0306 59.2743 15.3839ZM90.9962 38.0761C92.3213 40.9283 93.2848 46.2358 94.6567 50.2065C96.3337 54.3682 98.6053 58.7082 101.768 62.2528C97.7943 59.9978 95.7826 54.9265 94.1451 51.0159C92.3681 46.8767 91.753 42.1633 90.9962 38.0761ZM49.7578 17.2982C53.2937 19.4024 56.8189 23.351 57.7934 27.2854C59.2745 31.2697 60.8779 35.2278 61.8942 39.3166C63.1855 43.3436 64.9425 47.267 67.3159 51.0499C69.4914 54.8776 73.4588 58.3026 77.1408 61.7904C72.5834 61.1316 66.1688 55.9421 64.2617 52.8953C61.2148 49.2641 59.7594 45.2726 58.84 41.162C57.7409 37.0918 57.2614 32.8801 55.6198 28.9323C54.7066 24.8202 52.6779 20.9581 49.7578 17.2982ZM43.3819 13.6461C43.2093 14.9389 47.1129 21.2237 46.574 24.7253C47.607 27.7667 49.4503 38.3288 46.5156 29.5969C45.4369 25.3003 42.2931 21.1569 38.5232 17.7491C37.4284 16.9005 36.061 15.5813 34.9165 15.092C27.4902 10.0718 30.5951 14.1984 35.0438 16.6828C38.5737 20.4267 41.4023 24.6411 43.0362 28.5305C45.2635 32.5009 45.8432 36.8438 48.1169 40.8035C51.0454 47.738 43.6491 36.2405 43.2757 34.7231C41.1087 30.7392 39.3049 26.6722 36.4337 22.8473C34.6567 20.7477 24.6633 12.162 26.6929 15.5581C30.7552 19.182 34.1698 23.2642 36.0063 27.108C38.276 31.1361 40.8183 35.415 43.118 39.1543C45.82 43.0176 49.9484 46.5602 53.4826 50.2359C58.0571 55.4382 64.1162 57.7027 57.1324 51.0324C54.6835 47.1123 51.2409 43.4148 50.2905 39.1566C49.0326 34.9004 48.5384 30.1595 48.0222 26.0182C47.0181 21.7721 48.0164 17.0736 43.3819 13.6461ZM55.0113 22.1289C54.2988 23.2992 56.8233 28.1184 57.4372 30.836C58.079 34.1362 59.1516 37.7093 59.4508 40.7929C60.6888 43.9586 61.5413 47.5814 63.666 50.2534C65.1563 53.3622 68.7502 56.3669 71.8441 58.8203C72.2151 57.7273 66.3871 53.6526 65.015 51.106C63.2865 48.0509 61.56 44.6251 60.7998 41.6455C60.222 38.3307 58.3963 34.9276 58.3459 31.7879C57.8442 28.456 56.1537 25.0224 55.0113 22.1289ZM109.083 60.8349C110.166 62.0317 113.156 65.6013 115.714 67.6686C117.989 70.2318 122.79 72.4812 124.276 73.8354C121.459 73.9647 116.984 71.0549 114.322 68.6766C111.94 66.2393 109.689 63.3719 109.083 60.8349ZM78.1837 42.8157C79.6702 45.7986 80.9673 51.1648 83.7047 54.9894C86.1442 59.2202 89.384 63.272 94.7081 66.8523C89.0153 64.8178 85.74 59.8974 83.0226 56.0686C80.0125 51.9663 79.0492 47.4013 78.1837 42.8157ZM39.0196 19.9507C40.9105 20.8551 43.7244 24.754 44.4997 26.8125C46.0123 29.4015 46.4723 32.2288 47.7069 34.8807C48.1974 37.7004 49.8727 40.2537 50.4739 43.0483C52.156 45.5991 53.8674 48.1442 55.8827 50.6201C54.095 49.6922 50.6891 45.927 49.9623 43.8577C48.5179 41.2532 48.0504 38.4276 46.755 35.7894C46.3331 32.9545 44.9323 30.3391 43.9881 27.6219C42.4495 25.0387 41.0811 22.4162 39.0196 19.9507ZM129.26 78.4955C126.631 79.1483 123.913 79.408 121.433 80.7229C119.04 81.9054 116.249 83.2002 114.175 84.4417C109.401 87.2116 104.263 88.3674 98.9619 88.7971C95.855 88.2855 81.6905 89.2985 92.0032 86.6644C97.0337 85.0358 101.727 81.906 106.521 79.2268C109.067 77.2476 123.079 75.5604 112.884 78.7175C107.958 80.8089 102.982 82.6851 98.1677 85.2745C87.8366 89.8139 100.181 85.4944 103.352 83.6428C104.695 83.4443 105.921 82.7197 107.117 81.8687C113.465 79.2155 103.677 85.1903 101.889 85.3609C100.069 86.1063 94.042 88.437 99.5447 87.2776C101.955 86.1714 104.811 85.1631 106.903 83.9991C111.681 81.2516 116.194 77.3208 121.52 77.0017C125.286 77.5607 113.461 79.6213 111.207 82.566C109.491 84.9618 95.2624 88.8251 103.536 87.5345C108.559 85.8737 113.189 82.4634 118.153 80.5372C120.085 78.4939 133.817 75.7723 127.796 80.2136C123.625 82.0513 116.881 85.4948 114.444 84.6122C119.433 82.796 124.217 80.0678 129.26 78.4955ZM33.9343 22.0227C35.6643 22.0586 38.5934 27.7807 39.982 30.3759C42.1545 33.6444 43.3938 37.4747 46.1571 40.3199C44.5138 40.2645 41.1946 34.6303 40.1093 31.9667C37.7372 28.7434 36.0991 25.0028 33.9343 22.0227ZM97.8032 70.3188C93.757 68.3463 90.1789 70.0505 87.3068 71.9913C84.1958 74.1679 80.7659 76.5283 78.0017 78.9477C74.8353 80.8786 71.3842 83.1464 68.2994 84.1429C65.0623 85.7586 61.1761 86.0976 58.0015 86.6961C51.2557 87.7148 61.8366 88.5849 63.1709 88.0754C66.5332 87.0133 70.5031 87.0478 73.3696 85.0819C76.6988 83.8743 80.2393 82.0033 83.0718 79.8868C86.3112 78.522 89.1684 75.4583 92.3057 73.6405C98.917 69.1503 93.9947 71.0708 90.6156 73.3275C87.5711 75.7979 84.1893 78.3725 81.2112 79.8436C78.1149 82.0848 74.4884 83.5738 71.509 85.0387C68.2707 86.6496 64.417 87.1314 61.2111 87.5919C59.3033 87.2447 67.1852 86.1598 68.7678 85.194C72.072 83.8755 75.5067 81.5351 78.47 79.9989C81.5145 77.5285 84.8964 74.9538 87.8744 73.4828C90.9807 71.5288 94.1861 70.0081 97.8032 70.3188ZM31.1627 28.2001C27.0998 25.2289 23.347 23.6364 19.6887 22.4584C22.6873 24.7293 27.271 26.3607 30.6512 29.0095C33.1354 31.7376 36.485 34.6502 38.2897 37.2354C40.6299 39.9959 43.1735 43.0901 45.4878 45.5606C48.3872 47.8809 52.0419 51.547 55.3992 52.58C51.8488 50.0925 48.7798 47.1164 46.4397 44.6519C43.2548 42.082 41.3562 38.842 38.8012 36.426C36.6238 33.6289 33.6767 30.6253 31.1627 28.2001ZM24.3313 27.6581C16.4459 22.6611 25.2504 27.5416 28.0092 29.6051C30.7272 32.1234 33.8762 34.9349 35.5485 37.3907C37.6305 40.0527 39.8687 43.069 42.207 45.3749C44.5691 47.9737 47.7235 50.7836 51.0672 52.8626C58.3086 57.1049 48.752 53.4031 46.5087 51.1142C43.8446 48.5835 40.2375 45.8756 38.9695 43.3286C36.6931 40.7107 34.8211 37.6114 32.3109 35.3445C30.239 32.6802 27.3224 29.8167 24.3313 27.6581ZM89.2818 69.4639C85.8401 69.4778 82.8242 73.0219 80.0199 74.5597C77.1219 76.7542 74.1273 78.5255 71.1271 80.2664C68.0169 81.751 64.5208 83.1653 61.5673 84.0413C58.3384 84.7693 55.1091 85.4974 51.8803 86.2254C51.6393 85.361 57.9458 84.8183 59.8773 83.7283C62.9537 82.3251 66.1643 81.5131 69.1672 79.7829C72.2793 78.3071 75.6212 76.2085 78.4291 74.687C81.786 72.8449 86.0858 69.6112 79.7933 72.5286C76.776 74.4249 73.3861 76.3104 70.6307 78.0648C67.5221 79.3253 64.5373 81.1398 61.3407 82.0102C58.1126 82.9724 54.744 84.9514 51.5824 84.9044C46.0329 85.2747 46.4485 87.125 51.9795 86.6657C55.4465 86.7637 58.9656 85.4504 61.9364 84.6521C65.2144 84.1432 68.2671 82.6295 71.3256 81.147C74.3946 79.4802 77.7814 77.5811 80.4882 75.6109C83.3398 73.2104 86.2476 71.0542 89.2818 69.4639ZM26.2608 34.1637C22.4519 31.6336 18.6912 29.3224 15.3264 28.7631C12.0635 28.1787 8.19007 26.6175 5.25738 26.1749C3.06893 26.9277 11.1477 28.4687 12.7837 29.7991C16.2225 31.1901 20.716 34.4848 23.3059 36.4494C26.6764 38.9281 28.6645 41.7195 32.4359 44.1077C35.5372 44.9275 40.7489 49.9258 42.6602 49.437C39.0854 47.1119 36.5613 44.1596 34.2404 41.85C32.1789 39.1837 28.7896 36.4264 26.2608 34.1637ZM70.8338 64.6005C68.0582 65.2865 65.7836 68.1967 63.1627 69.5691C60.8367 72.2493 58.2218 73.6516 55.6901 75.4183C53.1396 77.1029 50.4667 78.2464 47.8204 79.5062C44.984 79.9226 42.3459 81.2219 39.355 80.9521C34.6529 81.5457 34.3164 80.0594 39.1565 80.0715C42.022 79.7851 44.6528 78.4526 47.4233 77.7449C50.0896 76.5748 52.7584 75.4109 55.3923 74.0973C57.9222 72.3215 60.4528 70.5458 62.8649 68.2481C65.4489 66.7123 67.9753 64.9189 70.536 63.2796C71.8665 63.1936 79.32 60.6712 75.1378 63.1674C72.4691 64.3269 70.3141 67.7688 67.7645 69.4569C65.3319 71.6635 62.8696 73.7433 60.1926 74.8658C57.6024 76.3743 55.0309 77.969 52.3229 78.9537C47.2869 80.2356 54.7634 77.6092 55.8887 76.2989C58.5272 75.006 60.954 72.7686 63.4605 70.89C65.8593 68.5338 68.4599 67.0673 70.8338 64.6005ZM22.9088 34.6881C20.5165 32.9854 9.15371 26.6096 17.215 29.9567C21.5352 31.8826 25.8002 35.0555 29.1854 37.9C30.0229 39.3056 39.9054 47.1491 33.2172 43.4688C29.2072 40.6715 26.5455 37.5696 22.9088 34.6881ZM18.2638 36.6608C21.823 38.3685 25.1572 44.3123 30.1198 47.1747C25.2168 45.7701 20.8678 40.0548 18.2638 36.6608ZM28.3153 49.4324C25.1289 48.9798 21.7339 47.6061 18.6154 47.4551C15.6185 47.3548 12.1024 46.7285 9.58241 47.4096C7.07108 47.9976 2.33709 45.823 1.3588 47.8756C4.23305 48.4089 8.12648 48.139 10.0508 48.4607C7.16642 49.348 4.23463 50.0289 0.946519 49.1254C-0.376384 50.2047 6.7107 51.268 7.8772 50.1076C9.11291 49.0294 16.4934 47.2436 13.6014 48.817C10.8572 49.8373 7.98281 52.0577 5.36259 52.294C-0.705516 53.1479 6.25561 55.1722 8.20307 52.579C10.9079 51.3838 13.7077 48.8328 16.4418 49.1019C20.8195 47.8479 22.668 50.2913 17.0807 49.8833C14.3148 50.8072 11.4757 53.1839 9.13978 54.6813C7.72579 56.5613 0.920122 55.4655 2.73353 57.0511C5.74092 57.1981 8.8872 56.1837 11.1709 54.4547C13.8978 52.8703 16.4891 50.6784 19.4809 50.2675C22.3348 49.7337 25.7064 49.719 28.3153 49.4324ZM18.5874 46.3047C13.8223 45.6215 8.42908 44.8555 4.2857 44.4395C8.62614 46.4703 14.0602 46.2665 18.5874 46.3047ZM40.6677 62.148C37.5795 63.7294 34.4786 66.8966 31.6044 68.1244C34.9214 67.5563 38.1422 64.9222 40.6677 62.148Z"
        fill="#222222" />
</svg>