<svg xmlns="http://www.w3.org/2000/svg" width="1345" height="1513" viewBox="0 0 1345 1513"
    fill="none">
    <g filter="url(#filter0_d_204_2)">
        <path
            d="M331.546 1470C341.876 1456.67 319.476 1447.03 328.546 1441C336.826 1435.91 311.016 1434.95 309.546 1438C296.936 1449.53 294.026 1423.72 282.546 1431C267.036 1440.41 285.706 1454.76 284.546 1452C262.836 1447.19 276.036 1458.01 292.546 1454C317.426 1454.72 277.726 1460.19 279.546 1459C287.986 1461.54 307.496 1473.37 306.546 1454C317.856 1453.43 329.966 1459.55 331.546 1470ZM474.546 1451C494.976 1435.87 461.206 1414.66 482.546 1411C456.746 1420.79 472.566 1386.47 449.546 1386C431.936 1372.87 461.326 1422.72 440.546 1419C437.246 1415.41 440.336 1412.16 442.546 1409C424.626 1411.35 435.086 1383.76 418.546 1386C390.656 1369.83 417.316 1398.43 417.546 1411C439.846 1416.54 376.136 1405.56 402.546 1428C420.276 1410.27 426.246 1436.02 440.546 1436C453.266 1419.51 473.456 1436.99 474.546 1451ZM301.546 1437C307.756 1427.65 303.156 1408.79 310.546 1400C306.526 1399.46 313.366 1428.86 310.546 1435C316.066 1432.24 312.166 1428.08 316.546 1435C315.766 1418.73 317.346 1408.93 328.546 1403C338.096 1402.83 368.706 1429.03 359.546 1405C358.986 1400.23 354.616 1399.26 352.546 1396C357.606 1377.91 358.236 1388.02 341.546 1379C342.396 1364.56 325.626 1341.33 321.546 1350C312.116 1366.66 336.386 1394.26 315.546 1396C289.666 1386.83 299.826 1428.59 301.546 1437ZM438.546 1426C454.996 1422.73 439.416 1431.86 434.546 1426C422.786 1421.84 434.346 1420.64 438.546 1426ZM458.546 1401C459.656 1402.89 455.976 1419.58 453.546 1412C451.936 1404.22 453.716 1395.02 458.546 1401ZM176.546 1398C184.729 1394.63 195.43 1372.62 182.546 1367C178.639 1363.28 182.536 1360.94 184.546 1360C200.635 1351.27 164.72 1361.26 173.546 1345C172.663 1329.64 156.435 1328.1 146.546 1323C124.216 1317.47 153.995 1332.33 151.546 1342C162.551 1364.76 142.406 1362.26 133.546 1369C131.322 1376.99 171.188 1362.22 145.546 1374C122.018 1382.05 155.729 1391.57 156.546 1376C167.814 1372.07 178.727 1386.16 176.546 1398ZM697.546 994C709.056 992.908 709.206 975.398 707.546 965C699.176 957.626 699.466 943.015 715.546 945C703.896 943.189 689.956 945.53 689.546 932C683.136 925.641 658.206 928.664 669.546 940C684.926 959.911 658.076 934.159 659.546 951C658.146 965.737 666.286 970.93 675.546 975C687.156 970.708 671.806 950.775 684.546 967C689.446 975.436 690.766 987.449 697.546 994ZM252.546 1387C261.416 1383.01 264.136 1371.15 266.546 1362C252.835 1353.11 271.366 1347.32 259.546 1345C246.854 1349.23 253.418 1326.57 240.546 1328C236.265 1325.94 211.935 1319.5 217.546 1325C223.918 1331.48 232.077 1337.91 234.546 1347C247.749 1361.86 216.319 1350.77 219.546 1362C222.402 1373 235.378 1374.54 239.546 1364C251.684 1360.93 251.025 1376.83 252.546 1387ZM610.546 985C616.896 978.458 622.246 964.354 635.546 976C650.956 975.979 646.716 973.987 645.546 985C657.306 980.37 650.086 960.286 640.546 960C642.186 948.765 649.666 950.295 631.546 950C632.086 935.464 625.096 928.453 616.546 923C603.056 909.858 611.566 938.669 612.546 944C613.956 961.86 622.646 964.32 599.546 961C590.996 971.24 603.046 983.639 610.546 985ZM333.546 1383C338.676 1369.32 335.696 1393.23 329.546 1389C324.746 1372.68 335.056 1356.92 333.546 1383ZM179.546 1374C183.643 1383.49 173.487 1368.23 168.546 1369C158.746 1365.21 180.194 1369.18 179.546 1374ZM700.546 968C703.666 997.649 695.986 983.925 690.546 969C668.766 953.216 692.946 957.507 700.546 968ZM534.546 1362C539.756 1342.07 551.916 1349.96 563.546 1358C587.976 1361.97 593.226 1361.48 574.546 1350C553.736 1349.24 568.586 1319.81 561.546 1326C544.046 1325.9 548.586 1302.32 539.546 1295C533.616 1265.23 529.956 1293.6 530.546 1309C526.086 1326.94 546.586 1344.65 542.546 1322C551.766 1317.59 546.516 1349.47 526.546 1335C508.926 1335.54 524.066 1364.88 534.546 1362ZM436.546 1354C441.986 1342.11 449.136 1331.92 450.546 1316C427.596 1306.5 461.266 1291.4 446.546 1293C427.936 1302.85 432.866 1273.16 415.546 1277C398.786 1270.59 376.396 1277.16 400.546 1285C406.036 1286.95 430.216 1311.05 406.546 1307C379.356 1320.9 418.996 1316.33 408.546 1318C390.346 1328.74 424.596 1326.33 423.546 1316C436.896 1319.57 432.076 1342.79 436.546 1354ZM243.546 1352C239.298 1355.28 244.234 1346.1 242.546 1339C243.29 1332.61 250.135 1351.23 243.546 1352ZM685.546 950C695.226 963.328 656.746 956.268 676.546 952C681.496 947.559 675.086 935.894 685.546 950ZM622.546 949C620.846 964.463 616.836 947.955 617.546 941C616.336 925.839 625.456 941.275 622.546 949ZM168.546 1347C169.902 1359.75 152.504 1369.64 160.546 1348C156.645 1331.73 163.034 1331.88 168.546 1347ZM532.546 891C539.426 884.013 545.306 862.724 538.546 852C536.796 849.667 532.766 847.333 532.546 845C546.716 832.169 533.556 839.141 524.546 835C524.126 818.502 505.236 818.986 490.546 818C483.996 826.393 506.786 831.188 508.546 842C509.286 845.521 516.006 845.591 517.546 844C506.876 836.615 531.126 838.497 517.546 848C503.186 839.113 476.516 850.597 501.546 857C490.236 866.892 514.026 877.961 515.546 858C529.456 860.752 524.146 882.739 532.546 891ZM422.546 1304C423.576 1303.27 408.176 1283.95 418.546 1286C430.806 1286.12 427.016 1302.46 422.546 1304ZM253.546 1273C261.606 1266.38 263.636 1243.13 258.546 1232C248.915 1216.8 288.616 1212.38 253.546 1214C250.674 1201.15 240.992 1189.2 227.546 1191C218.445 1193.22 261.496 1205.67 229.546 1198C219.886 1197.02 244.403 1234.74 222.546 1219C201.443 1218.06 219.403 1252.02 229.546 1235C242.511 1227.34 240.181 1256.93 247.546 1262C253.117 1245.12 252.23 1257.45 253.546 1273ZM254.546 1239C256.178 1246.42 252.309 1263.1 252.546 1243C246.41 1234.45 250.016 1227.01 254.546 1239ZM468.546 1200C476.876 1192.27 490.726 1175.16 483.546 1162C481.026 1159.95 476.606 1156.08 479.546 1153C501.476 1139.44 468.936 1156.68 468.546 1142C467.316 1128.37 428.556 1131.77 425.546 1138C449.386 1129.63 449.356 1159.18 459.546 1154C456.076 1146.09 463.846 1160.58 462.546 1152C454.656 1127.95 474.116 1157.94 463.546 1159C461.966 1156.11 413.896 1160.27 442.546 1167C448.226 1165.16 451.446 1165.16 445.546 1167C434.106 1172.76 443.816 1184.02 453.546 1171C470.826 1161.96 476.116 1186.84 468.546 1200ZM406.546 1167C405.766 1154.88 403.606 1137.09 397.546 1129C380.196 1116.21 420.986 1105.19 391.546 1110C379.766 1105.54 377.686 1089.86 366.546 1086C364.786 1083.68 358.976 1083.12 359.546 1080C367.836 1092.05 357.746 1088.8 353.546 1078C352.946 1067.07 328.866 1059.32 342.546 1050C347.826 1048.5 317.086 1046.04 323.546 1030C316.406 1020.9 308.456 1011.08 301.546 1003C295.806 1005.52 304.286 1027.6 305.546 1037C315.866 1048.33 314.036 1063.75 295.546 1062C294.356 1086.28 313.416 1064.93 320.546 1066C328.506 1074.28 337.236 1083.32 346.546 1089C362.016 1089.77 357.876 1111.68 367.546 1117C397.126 1120.5 359.556 1122.05 351.546 1124C349.036 1126.36 351.226 1133.94 354.546 1132C372.006 1120.74 343.276 1143.72 361.546 1139C374.276 1125.41 377.766 1128.41 382.546 1143C389.456 1152.08 396.936 1160.62 406.546 1167ZM339.546 1161C338.266 1159.96 353.366 1150.98 344.546 1140C318.686 1139.21 355.316 1133.43 341.546 1130C323.806 1134.41 338.226 1106.65 323.546 1108C316.486 1104.08 296.036 1096.26 309.546 1109C313.036 1115.71 319.886 1130.62 314.546 1138C303.756 1128.23 292.506 1135.64 300.546 1149C304.486 1157.85 319.486 1164.68 319.546 1148C327.856 1140.66 337.766 1154.43 339.546 1161ZM212.546 1148C213.725 1141.56 180.086 1129.85 196.546 1118C202.554 1113.91 190.943 1114.54 189.546 1117C176.485 1114.06 182.233 1092.31 173.546 1085C168.589 1051.51 153.707 1084 168.546 1096C173.799 1096.08 173.432 1101.78 173.546 1107C170.493 1122.3 164.885 1093.22 161.546 1090C156.308 1090.22 158.987 1136.56 174.546 1121C205.1 1118.93 151.591 1141.59 162.546 1129C128.315 1123.27 154.06 1162.89 165.546 1138C177.25 1140.56 193.616 1151.17 212.546 1148ZM334.546 1142C322.956 1145.34 316.186 1139.34 318.546 1117C317.386 1114.48 330.206 1115.5 326.546 1120C327.326 1138 315.846 1138.19 334.546 1142ZM394.546 1141C396.246 1157.49 386.376 1134.8 386.546 1137C383.896 1120.39 395.106 1134.43 394.546 1141ZM110.546 1140C133.82 1133.07 101.696 1100.37 122.546 1098C114.575 1100.65 75.8696 1113.96 79.5456 1105C122.233 1107.19 48.4446 1087.74 72.5456 1118C93.4396 1105.4 105.619 1122.4 110.546 1140ZM588.546 1123C595.676 1113.47 603.616 1104.73 607.546 1092C588.936 1084.11 615.836 1063.55 602.546 1070C589.456 1075.24 588.986 1050.11 567.546 1061C548.706 1067.18 543.866 1052.17 538.546 1043C535.176 1034.12 517.136 1020.23 534.546 1013C525.856 1015.76 510.926 1006.59 509.546 995C499.966 993.25 497.526 961.972 491.546 977C481.916 994.766 500.966 1002.7 505.546 1002C512.386 1010.67 482.746 989.226 497.546 1014C515.526 1026.62 468.166 1018.55 486.546 1036C499.036 1047.6 508.346 1017.07 517.546 1037C513.076 1046.24 529.836 1055.97 537.546 1060C546.466 1067.74 566.576 1064.31 572.546 1075C596.256 1093.31 563.166 1075.31 560.546 1088C559.466 1101.75 581.476 1113.61 581.546 1093C592.216 1093.23 594.216 1112.26 588.546 1123ZM383.546 1116C384.236 1130.52 375.036 1095.29 365.546 1101C363.096 1085.84 381.586 1110.25 383.546 1116ZM90.5456 1101C96.1446 1094.53 100.405 1073.28 104.546 1094C110.196 1106.14 112.55 1076.07 102.546 1076C98.4376 1073.41 76.8306 1058.31 83.5456 1070C88.6696 1078.34 91.6136 1089.35 90.5456 1101ZM320.546 1056C318.586 1059.78 312.986 1038.49 311.546 1032C318.246 1023.48 320.806 1047.8 320.546 1056ZM241.546 1020C250.483 1015.4 254.227 1003.93 258.546 996C262.846 982.857 245.362 974.994 261.546 970C249.413 975.07 242.75 963.088 240.546 954C233.256 947.756 219.131 946.661 207.546 946C202.383 949.327 225.079 953.384 223.546 963C237.112 979.443 212.802 977.042 209.546 984C213.986 1001.3 228.478 979.628 236.546 988C243.899 993.727 243.982 1011.53 241.546 1020ZM142.546 1013C138.982 1004.66 131.428 994.567 124.546 987C109.873 974.468 142.229 965.68 114.546 968C111.352 956.304 110.214 940.952 106.546 931C105.423 905.899 96.0686 932.718 96.5456 942C88.7196 954.547 99.9806 969.564 95.5456 975C73.1546 966.389 79.8926 999.227 91.5456 990C104.105 977.544 109.282 989.66 113.546 997C123.367 1002.07 132.428 1009.5 142.546 1013ZM237.546 968C239.89 976.457 230.432 972.989 232.546 966C231.177 953.526 237.649 962.236 237.546 968ZM107.546 963C112.125 969.02 102.919 970.355 104.546 967C105.153 963.822 105.281 957.076 107.546 963ZM262.546 960C268.856 952.1 274.396 941.788 277.546 932C275.436 919.655 270.956 908.673 281.546 907C264.556 913.621 265.786 893.964 256.546 891C250.633 889.423 219.304 885.796 229.546 894C243.535 894.224 244.673 908.94 252.546 914C273.306 911.326 237.06 916.871 234.546 919C229.004 938.544 250.787 920.661 255.546 925C264.106 930.443 262.826 945.719 262.546 960ZM174.546 1505C178.007 1493.74 173.198 1471.65 167.546 1463C165.938 1459.32 166.848 1455.15 169.546 1453C191.176 1442.6 160.564 1451.92 158.546 1445C152.841 1432.43 140.026 1425.56 130.546 1418C129.909 1433.36 136.775 1446.57 145.546 1455C149.978 1458.01 154.086 1453.91 146.546 1454C134.72 1434.32 157.463 1460.93 153.546 1448C169.033 1469.52 116.915 1444.72 126.546 1466C131.557 1494.88 149.495 1454.81 152.546 1473C159.18 1484.36 163.081 1498.47 174.546 1505ZM167.546 1485C167.17 1489.37 161.082 1478.24 159.546 1475C161.295 1469.26 168.025 1479.74 167.546 1485ZM135.546 925C143.386 919.403 148.393 906.366 147.546 895C128.178 885.99 161.283 874.735 143.546 876C129.208 879.59 134.471 856.103 119.546 859C100.297 853.449 92.5046 862.417 109.546 868C112.104 878.254 126.075 888.341 128.546 881C131.097 890.835 102.189 882.519 100.546 892C99.5236 908.202 119.187 907.077 121.546 896C134.54 897.218 132.292 915.321 135.546 925ZM254.546 901C256.567 901.591 255.495 917.316 254.546 909C252.708 908.225 250.874 895.407 254.546 901ZM356.546 872C367.766 868.33 372.696 856.769 376.546 847C359.266 833.821 393.826 826.366 377.546 825C360.986 830.789 368.406 803.536 350.546 809C335.106 810.17 320.086 813.888 341.546 818C346.876 837.471 352.946 823.531 355.546 825C374.506 837.68 346.506 831.034 336.546 833C320.026 830.63 335.946 862.041 343.546 849C357.356 838.78 356.826 861.563 356.546 872ZM276.546 846C286.526 842.449 284.656 825.353 285.546 814C280.926 804.634 275.256 791.101 289.546 789C293.236 782.857 264.166 792.211 267.546 778C259.316 774.879 244.835 770.351 234.546 775C239.674 782.177 253.387 787.084 251.546 797C236.83 793.154 228.692 812.934 244.546 811C254.62 800.671 262.526 805.14 264.546 818C268.866 827.015 269.986 839.227 276.546 846ZM276.546 832C273.896 827.885 257.107 798.139 266.546 793C263.116 809.692 289.316 803.42 276.546 832ZM48.5456 1391C54.5256 1383.22 53.0986 1364.75 52.5456 1353C38.7216 1342.29 59.7816 1328.74 54.5456 1328C36.9306 1335.1 39.5996 1314.38 26.5456 1314C16.3886 1303.31 2.93857 1306.63 13.5456 1322C11.9276 1330.89 38.3286 1342.74 21.5456 1340C6.13657 1335.72 -4.11543 1354.74 12.5456 1354C23.5566 1343.47 32.0356 1347.46 33.5456 1363C37.4696 1373.29 43.0646 1383.55 48.5456 1391ZM261.546 794C260.036 799.392 256.435 787.325 254.546 786C254.222 781.082 261.466 791.913 261.546 794ZM44.5456 1357C49.5676 1382.94 36.4526 1365.61 35.5456 1354C26.8086 1339.65 38.9866 1336.57 27.5456 1332C11.2926 1317.29 36.0376 1322.99 37.5456 1334C31.7566 1352.06 43.2896 1345.11 44.5456 1357ZM279.546 674C277.566 666.91 279.436 649.804 277.546 640C276.646 630.607 266.386 620.234 273.546 613C283.556 607.505 292.166 601.908 271.546 605C259.726 604.646 262.726 587.683 256.546 583C250.2 576.681 242.778 571.434 241.546 560C244.719 574.071 237.265 564.85 239.546 585C239.169 598.043 243.03 606.85 247.546 615C242.358 615.514 222.772 603.739 224.546 619C224.101 627.971 233.84 642.525 240.546 633C247.284 624.224 252.199 615.554 252.546 634C256.501 642.711 258.946 652.938 266.546 658C272.786 671.329 277.756 670.723 269.546 658C264.986 649.891 259.456 642.752 257.546 632C250.903 614.129 260.106 623.962 263.546 629C267.846 614.042 269.706 637.097 271.546 645C274.596 654.127 273.966 668.717 279.546 674ZM259.546 611C245.417 630.735 253.661 606.21 245.546 592C241.862 584.992 250.259 590.534 249.546 593C253.322 616.161 256.725 597.151 259.546 611Z"
            fill="#201208" />
        <path
            d="M117.546 1263C113.696 1272.77 108.766 1284.33 97.5456 1288C97.8256 1277.56 98.3556 1254.78 84.5456 1265C76.9456 1278.04 61.0256 1246.63 77.5456 1249C87.5056 1247.03 115.506 1253.68 96.5456 1241C93.9456 1239.53 87.8756 1253.47 82.5456 1234C61.0856 1229.89 76.1056 1226.17 91.5456 1225C109.406 1219.54 101.986 1246.79 118.546 1241C134.826 1242.37 100.266 1249.82 117.546 1263Z"
            fill="#201208" />
        <path
            d="M472.546 707C485.43 712.624 474.729 734.626 466.546 738C468.727 726.156 457.814 712.066 446.546 716C445.729 731.574 412.018 722.051 435.546 714C461.188 702.219 421.322 716.989 423.546 709C432.406 702.259 452.551 704.764 441.546 682C443.995 672.331 414.216 657.471 436.546 663C446.435 668.102 462.663 669.639 463.546 685C454.72 701.258 490.635 691.266 474.546 700C472.536 700.944 468.639 703.278 472.546 707Z"
            fill="#201208" />
        <path
            d="M556.546 702C554.136 711.151 551.416 723.011 542.546 727C541.025 716.832 541.684 700.929 529.546 704C525.378 714.54 512.402 713.001 509.546 702C506.319 690.772 537.749 701.857 524.546 687C522.077 677.913 513.918 671.484 507.546 665C501.935 659.504 526.265 665.941 530.546 668C543.418 666.572 536.854 689.234 549.546 685C561.366 687.317 542.835 693.112 556.546 702Z"
            fill="#201208" />
    </g>
    <g filter="url(#filter1_d_204_2)">
        <path
            d="M956.546 910C966.876 896.672 944.476 887.034 953.546 881C961.826 875.914 936.016 874.948 934.546 878C921.936 889.527 919.026 863.718 907.546 871C892.036 880.408 910.706 894.758 909.546 892C887.836 887.191 901.036 898.014 917.546 894C942.426 894.721 902.726 900.193 904.546 899C912.986 901.537 932.496 913.37 931.546 894C942.856 893.433 954.966 899.551 956.546 910ZM1099.55 891C1119.98 875.866 1086.21 854.658 1107.55 851C1081.75 860.786 1097.57 826.47 1074.55 826C1056.94 812.871 1086.33 862.719 1065.55 859C1062.25 855.407 1065.34 852.163 1067.55 849C1049.63 851.349 1060.09 823.764 1043.55 826C1015.66 809.835 1042.32 838.431 1042.55 851C1064.85 856.537 1001.14 845.559 1027.55 868C1045.28 850.272 1051.25 876.016 1065.55 876C1078.27 859.511 1098.46 876.991 1099.55 891ZM926.546 877C932.756 867.645 928.156 848.788 935.546 840C931.526 839.464 938.366 868.858 935.546 875C941.066 872.237 937.166 868.077 941.546 875C940.766 858.725 942.346 848.934 953.546 843C963.096 842.826 993.706 869.03 984.546 845C983.986 840.231 979.616 839.264 977.546 836C982.606 817.908 983.236 828.024 966.546 819C967.396 804.565 950.626 781.333 946.546 790C937.116 806.662 961.386 834.259 940.546 836C914.666 826.833 924.826 868.589 926.546 877ZM1063.55 866C1080 862.735 1064.42 871.859 1059.55 866C1047.79 861.845 1059.35 860.643 1063.55 866ZM1083.55 841C1084.66 842.894 1080.98 859.576 1078.55 852C1076.94 844.222 1078.72 835.017 1083.55 841ZM801.546 838C809.729 834.626 820.43 812.624 807.546 807C803.639 803.278 807.536 800.944 809.546 800C825.635 791.266 789.72 801.258 798.546 785C797.663 769.639 781.435 768.102 771.546 763C749.216 757.471 778.995 772.331 776.546 782C787.551 804.764 767.406 802.259 758.546 809C756.322 816.989 796.188 802.219 770.546 814C747.018 822.051 780.729 831.574 781.546 816C792.814 812.066 803.727 826.156 801.546 838ZM1322.55 434C1334.06 432.908 1334.21 415.398 1332.55 405C1324.18 397.626 1324.47 383.015 1340.55 385C1328.9 383.189 1314.96 385.53 1314.55 372C1308.14 365.641 1283.21 368.664 1294.55 380C1309.93 399.911 1283.08 374.159 1284.55 391C1283.15 405.737 1291.29 410.93 1300.55 415C1312.16 410.708 1296.81 390.775 1309.55 407C1314.45 415.436 1315.77 427.449 1322.55 434ZM877.546 827C886.416 823.011 889.136 811.151 891.546 802C877.835 793.112 896.366 787.317 884.546 785C871.854 789.234 878.418 766.572 865.546 768C861.265 765.941 836.935 759.504 842.546 765C848.918 771.484 857.077 777.913 859.546 787C872.749 801.857 841.319 790.772 844.546 802C847.402 813.001 860.378 814.54 864.546 804C876.684 800.929 876.025 816.832 877.546 827ZM1235.55 425C1241.9 418.458 1247.25 404.354 1260.55 416C1275.96 415.979 1271.72 413.987 1270.55 425C1282.31 420.37 1275.09 400.286 1265.55 400C1267.19 388.765 1274.67 390.295 1256.55 390C1257.09 375.464 1250.1 368.453 1241.55 363C1228.06 349.858 1236.57 378.669 1237.55 384C1238.96 401.86 1247.65 404.32 1224.55 401C1216 411.24 1228.05 423.639 1235.55 425ZM958.546 823C963.676 809.321 960.696 833.234 954.546 829C949.746 812.677 960.056 796.917 958.546 823ZM804.546 814C808.643 823.493 798.487 808.232 793.546 809C783.746 805.21 805.194 809.178 804.546 814ZM1325.55 408C1328.67 437.649 1320.99 423.925 1315.55 409C1293.77 393.216 1317.95 397.507 1325.55 408ZM1159.55 802C1164.76 782.069 1176.92 789.963 1188.55 798C1212.98 801.972 1218.23 801.482 1199.55 790C1178.74 789.243 1193.59 759.806 1186.55 766C1169.05 765.9 1173.59 742.319 1164.55 735C1158.62 705.229 1154.96 733.604 1155.55 749C1151.09 766.945 1171.59 784.653 1167.55 762C1176.77 757.593 1171.52 789.466 1151.55 775C1133.93 775.535 1149.07 804.883 1159.55 802ZM1061.55 794C1066.99 782.108 1074.14 771.924 1075.55 756C1052.6 746.499 1086.27 731.404 1071.55 733C1052.94 742.851 1057.87 713.157 1040.55 717C1023.79 710.591 1001.4 717.156 1025.55 725C1031.04 726.95 1055.22 751.047 1031.55 747C1004.36 760.899 1044 756.329 1033.55 758C1015.35 768.743 1049.6 766.328 1048.55 756C1061.9 759.571 1057.08 782.793 1061.55 794ZM868.546 792C864.298 795.282 869.234 786.1 867.546 779C868.29 772.609 875.135 791.234 868.546 792ZM1310.55 390C1320.23 403.328 1281.75 396.268 1301.55 392C1306.5 387.559 1300.09 375.894 1310.55 390ZM1247.55 389C1245.85 404.463 1241.84 387.955 1242.55 381C1241.34 365.839 1250.46 381.275 1247.55 389ZM793.546 787C794.902 799.752 777.504 809.635 785.546 788C781.645 771.731 788.034 771.883 793.546 787ZM1157.55 331C1164.43 324.013 1170.31 302.724 1163.55 292C1161.8 289.667 1157.77 287.333 1157.55 285C1171.72 272.169 1158.56 279.141 1149.55 275C1149.13 258.502 1130.24 258.986 1115.55 258C1109 266.393 1131.79 271.188 1133.55 282C1134.29 285.521 1141.01 285.591 1142.55 284C1131.88 276.615 1156.13 278.497 1142.55 288C1128.19 279.113 1101.52 290.597 1126.55 297C1115.24 306.892 1139.03 317.961 1140.55 298C1154.46 300.752 1149.15 322.739 1157.55 331ZM1047.55 744C1048.58 743.266 1033.18 723.947 1043.55 726C1055.81 726.116 1052.02 742.464 1047.55 744ZM878.546 713C886.606 706.381 888.636 683.132 883.546 672C873.915 656.804 913.616 652.376 878.546 654C875.674 641.148 865.992 629.195 852.546 631C843.445 633.224 886.496 645.669 854.546 638C844.886 637.018 869.403 674.744 847.546 659C826.443 658.06 844.403 692.024 854.546 675C867.511 667.336 865.181 696.934 872.546 702C878.117 685.12 877.23 697.449 878.546 713ZM879.546 679C881.178 686.418 877.309 703.101 877.546 683C871.41 674.448 875.016 667.014 879.546 679ZM1093.55 640C1101.88 632.274 1115.73 615.16 1108.55 602C1106.03 599.954 1101.61 596.081 1104.55 593C1126.48 579.436 1093.94 596.678 1093.55 582C1092.32 568.374 1053.56 571.77 1050.55 578C1074.39 569.632 1074.36 599.183 1084.55 594C1081.08 586.085 1088.85 600.577 1087.55 592C1079.66 567.948 1099.12 597.938 1088.55 599C1086.97 596.107 1038.9 600.272 1067.55 607C1073.23 605.165 1076.45 605.164 1070.55 607C1059.11 612.761 1068.82 624.018 1078.55 611C1095.83 601.956 1101.12 626.844 1093.55 640ZM1031.55 607C1030.77 594.881 1028.61 577.089 1022.55 569C1005.2 556.21 1045.99 545.186 1016.55 550C1004.77 545.54 1002.69 529.856 991.546 526C989.786 523.684 983.976 523.122 984.546 520C992.836 532.046 982.746 528.801 978.546 518C977.946 507.071 953.866 499.324 967.546 490C972.826 488.505 942.086 486.039 948.546 470C941.406 460.898 933.456 451.079 926.546 443C920.806 445.524 929.286 467.603 930.546 477C940.866 488.332 939.036 503.751 920.546 502C919.356 526.28 938.416 504.929 945.546 506C953.506 514.285 962.236 523.322 971.546 529C987.016 529.774 982.876 551.681 992.546 557C1022.13 560.501 984.556 562.053 976.546 564C974.036 566.363 976.226 573.943 979.546 572C997.006 560.741 968.276 583.718 986.546 579C999.276 565.408 1002.77 568.408 1007.55 583C1014.46 592.084 1021.94 600.616 1031.55 607ZM964.546 601C963.266 599.962 978.366 590.976 969.546 580C943.686 579.206 980.316 573.426 966.546 570C948.806 574.405 963.226 546.647 948.546 548C941.486 544.076 921.036 536.258 934.546 549C938.036 555.706 944.886 570.622 939.546 578C928.756 568.227 917.506 575.639 925.546 589C929.486 597.851 944.486 604.684 944.546 588C952.856 580.66 962.766 594.428 964.546 601ZM837.546 588C838.725 581.558 805.086 569.845 821.546 558C827.554 553.914 815.943 554.541 814.546 557C801.485 554.062 807.233 532.312 798.546 525C793.589 491.515 778.707 524.003 793.546 536C798.799 536.08 798.432 541.781 798.546 547C795.493 562.301 789.885 533.216 786.546 530C781.308 530.221 783.987 576.555 799.546 561C830.1 558.929 776.591 581.588 787.546 569C753.315 563.267 779.06 602.887 790.546 578C802.25 580.561 818.616 591.167 837.546 588ZM959.546 582C947.956 585.343 941.186 579.336 943.546 557C942.386 554.482 955.206 555.503 951.546 560C952.326 578 940.846 578.193 959.546 582ZM1019.55 581C1021.25 597.486 1011.38 574.801 1011.55 577C1008.9 560.394 1020.11 574.425 1019.55 581ZM735.546 580C758.82 573.075 726.696 540.371 747.546 538C739.575 540.652 700.87 553.962 704.546 545C747.233 547.191 673.445 527.744 697.546 558C718.44 545.398 730.619 562.404 735.546 580ZM1213.55 563C1220.68 553.468 1228.62 544.733 1232.55 532C1213.94 524.111 1240.84 503.553 1227.55 510C1214.46 515.245 1213.99 490.112 1192.55 501C1173.71 507.182 1168.87 492.166 1163.55 483C1160.18 474.122 1142.14 460.234 1159.55 453C1150.86 455.758 1135.93 446.594 1134.55 435C1124.97 433.25 1122.53 401.972 1116.55 417C1106.92 434.766 1125.97 442.698 1130.55 442C1137.39 450.674 1107.75 429.226 1122.55 454C1140.53 466.625 1093.17 458.554 1111.55 476C1124.04 487.605 1133.35 457.069 1142.55 477C1138.08 486.236 1154.84 495.973 1162.55 500C1171.47 507.743 1191.58 504.305 1197.55 515C1221.26 533.313 1188.17 515.306 1185.55 528C1184.47 541.748 1206.48 553.612 1206.55 533C1217.22 533.229 1219.22 552.256 1213.55 563ZM1008.55 556C1009.24 570.516 1000.04 535.291 990.546 541C988.096 525.836 1006.59 550.251 1008.55 556ZM715.546 541C721.145 534.525 725.405 513.276 729.546 534C735.196 546.138 737.55 516.074 727.546 516C723.438 513.413 701.831 498.314 708.546 510C713.67 518.336 716.614 529.351 715.546 541ZM945.546 496C943.586 499.781 937.986 478.491 936.546 472C943.246 463.484 945.806 487.804 945.546 496ZM866.546 460C875.483 455.403 879.227 443.926 883.546 436C887.846 422.857 870.362 414.994 886.546 410C874.413 415.07 867.75 403.088 865.546 394C858.256 387.756 844.131 386.661 832.546 386C827.383 389.327 850.079 393.384 848.546 403C862.112 419.443 837.802 417.042 834.546 424C838.986 441.304 853.478 419.628 861.546 428C868.899 433.727 868.982 451.528 866.546 460ZM767.546 453C763.982 444.656 756.428 434.567 749.546 427C734.873 414.468 767.229 405.68 739.546 408C736.352 396.304 735.214 380.952 731.546 371C730.423 345.899 721.069 372.718 721.546 382C713.72 394.547 724.981 409.564 720.546 415C698.155 406.389 704.893 439.227 716.546 430C729.105 417.544 734.282 429.66 738.546 437C748.367 442.069 757.428 449.499 767.546 453ZM862.546 408C864.89 416.457 855.432 412.989 857.546 406C856.177 393.526 862.649 402.236 862.546 408ZM732.546 403C737.125 409.02 727.919 410.355 729.546 407C730.153 403.822 730.281 397.076 732.546 403ZM887.546 400C893.856 392.1 899.396 381.788 902.546 372C900.436 359.655 895.956 348.673 906.546 347C889.556 353.621 890.786 333.964 881.546 331C875.633 329.423 844.304 325.796 854.546 334C868.535 334.224 869.673 348.94 877.546 354C898.306 351.326 862.06 356.871 859.546 359C854.004 378.544 875.787 360.661 880.546 365C889.106 370.443 887.826 385.719 887.546 400ZM799.546 945C803.007 933.736 798.198 911.648 792.546 903C790.938 899.324 791.848 895.149 794.546 893C816.176 882.596 785.564 891.919 783.546 885C777.841 872.432 765.026 865.561 755.546 858C754.909 873.356 761.775 886.575 770.546 895C774.978 898.011 779.086 893.906 771.546 894C759.72 874.32 782.463 900.934 778.546 888C794.033 909.525 741.915 884.72 751.546 906C756.557 934.884 774.495 894.81 777.546 913C784.18 924.365 788.081 938.467 799.546 945ZM792.546 925C792.17 929.371 786.082 918.241 784.546 915C786.295 909.257 793.025 919.744 792.546 925ZM760.546 365C768.386 359.403 773.393 346.366 772.546 335C753.178 325.99 786.283 314.735 768.546 316C754.208 319.59 759.471 296.103 744.546 299C725.297 293.449 717.505 302.417 734.546 308C737.104 318.254 751.075 328.341 753.546 321C756.097 330.835 727.189 322.519 725.546 332C724.524 348.202 744.187 347.077 746.546 336C759.54 337.218 757.292 355.321 760.546 365ZM879.546 341C881.567 341.591 880.495 357.316 879.546 349C877.708 348.225 875.874 335.407 879.546 341ZM981.546 312C992.766 308.33 997.696 296.769 1001.55 287C984.266 273.821 1018.83 266.366 1002.55 265C985.986 270.789 993.406 243.536 975.546 249C960.106 250.17 945.086 253.888 966.546 258C971.876 277.471 977.946 263.531 980.546 265C999.506 277.68 971.506 271.034 961.546 273C945.026 270.63 960.946 302.041 968.546 289C982.356 278.78 981.826 301.563 981.546 312ZM901.546 286C911.526 282.449 909.656 265.353 910.546 254C905.926 244.634 900.256 231.101 914.546 229C918.236 222.857 889.166 232.211 892.546 218C884.316 214.879 869.835 210.351 859.546 215C864.674 222.177 878.387 227.084 876.546 237C861.83 233.154 853.692 252.934 869.546 251C879.62 240.671 887.526 245.14 889.546 258C893.866 267.015 894.986 279.227 901.546 286ZM901.546 272C898.896 267.885 882.107 238.139 891.546 233C888.116 249.692 914.316 243.42 901.546 272ZM673.546 831C679.526 823.22 678.099 804.754 677.546 793C663.722 782.291 684.782 768.736 679.546 768C661.931 775.096 664.6 754.385 651.546 754C641.389 743.306 627.939 746.628 638.546 762C636.928 770.89 663.329 782.737 646.546 780C631.137 775.718 620.885 794.738 637.546 794C648.557 783.472 657.036 787.46 658.546 803C662.47 813.289 668.065 823.548 673.546 831ZM886.546 234C885.036 239.392 881.435 227.325 879.546 226C879.222 221.082 886.466 231.913 886.546 234ZM669.546 797C674.568 822.943 661.453 805.613 660.546 794C651.809 779.654 663.987 776.565 652.546 772C636.293 757.289 661.038 762.988 662.546 774C656.757 792.056 668.29 785.115 669.546 797ZM904.546 114C902.566 106.91 904.436 89.804 902.546 80C901.646 70.607 891.386 60.234 898.546 53C908.556 47.5052 917.166 41.9081 896.546 45C884.726 44.646 887.726 27.683 881.546 23C875.2 16.681 867.778 11.4337 866.546 0C869.719 14.071 862.265 4.8497 864.546 25C864.169 38.0425 868.03 46.8501 872.546 55C867.358 55.5137 847.772 43.7387 849.546 59C849.101 67.971 858.84 82.525 865.546 73C872.284 64.224 877.199 55.554 877.546 74C881.501 82.711 883.946 92.938 891.546 98C897.786 111.329 902.756 110.723 894.546 98C889.986 89.891 884.456 82.752 882.546 72C875.903 54.1286 885.106 63.962 888.546 69C892.846 54.0416 894.706 77.097 896.546 85C899.596 94.127 898.966 108.717 904.546 114ZM884.546 51C870.417 70.735 878.661 46.2103 870.546 32C866.862 24.9919 875.259 30.5335 874.546 33C878.322 56.1605 881.725 37.1507 884.546 51Z"
            fill="#201208" />
        <path
            d="M742.546 703C738.696 712.769 733.766 724.33 722.546 728C722.826 717.563 723.356 694.78 709.546 705C701.946 718.041 686.026 686.63 702.546 689C712.506 687.034 740.506 693.68 721.546 681C718.946 679.531 712.876 693.471 707.546 674C686.086 669.888 701.106 666.17 716.546 665C734.406 659.536 726.986 686.789 743.546 681C759.826 682.366 725.266 689.821 742.546 703Z"
            fill="#201208" />
        <path
            d="M1097.55 147C1110.43 152.624 1099.73 174.626 1091.55 178C1093.73 166.156 1082.81 152.066 1071.55 156C1070.73 171.574 1037.02 162.051 1060.55 154C1086.19 142.219 1046.32 156.989 1048.55 149C1057.41 142.259 1077.55 144.764 1066.55 122C1068.99 112.331 1039.22 97.471 1061.55 103C1071.43 108.102 1087.66 109.639 1088.55 125C1079.72 141.258 1115.63 131.266 1099.55 140C1097.54 140.944 1093.64 143.278 1097.55 147Z"
            fill="#201208" />
        <path
            d="M1181.55 142C1179.14 151.151 1176.42 163.011 1167.55 167C1166.02 156.832 1166.68 140.929 1154.55 144C1150.38 154.54 1137.4 153.001 1134.55 142C1131.32 130.772 1162.75 141.857 1149.55 127C1147.08 117.913 1138.92 111.484 1132.55 105C1126.93 99.504 1151.26 105.941 1155.55 108C1168.42 106.572 1161.85 129.234 1174.55 125C1186.37 127.317 1167.83 133.112 1181.55 142Z"
            fill="#201208" />
    </g>
    <defs>
        <filter id="filter0_d_204_2" x="0" y="560" width="719.546" height="953"
            filterUnits="userSpaceOnUse" color-interpolation-filters="sRGB">
            <feFlood flood-opacity="0" result="BackgroundImageFix" />
            <feColorMatrix in="SourceAlpha" type="matrix"
                values="0 0 0 0 0 0 0 0 0 0 0 0 0 0 0 0 0 0 127 0" result="hardAlpha" />
            <feOffset dy="4" />
            <feGaussianBlur stdDeviation="2" />
            <feComposite in2="hardAlpha" operator="out" />
            <feColorMatrix type="matrix" values="0 0 0 0 0 0 0 0 0 0 0 0 0 0 0 0 0 0 0.25 0" />
            <feBlend mode="normal" in2="BackgroundImageFix" result="effect1_dropShadow_204_2" />
            <feBlend mode="normal" in="SourceGraphic" in2="effect1_dropShadow_204_2" result="shape" />
        </filter>
        <filter id="filter1_d_204_2" x="625" y="0" width="719.546" height="953"
            filterUnits="userSpaceOnUse" color-interpolation-filters="sRGB">
            <feFlood flood-opacity="0" result="BackgroundImageFix" />
            <feColorMatrix in="SourceAlpha" type="matrix"
                values="0 0 0 0 0 0 0 0 0 0 0 0 0 0 0 0 0 0 127 0" result="hardAlpha" />
            <feOffset dy="4" />
            <feGaussianBlur stdDeviation="2" />
            <feComposite in2="hardAlpha" operator="out" />
            <feColorMatrix type="matrix" values="0 0 0 0 0 0 0 0 0 0 0 0 0 0 0 0 0 0 0.25 0" />
            <feBlend mode="normal" in2="BackgroundImageFix" result="effect1_dropShadow_204_2" />
            <feBlend mode="normal" in="SourceGraphic" in2="effect1_dropShadow_204_2" result="shape" />
        </filter>
    </defs>
</svg>